<svg width="139" height="70" fill="none" xmlns="http://www.w3.org/2000/svg"><path d="M60.3 65.32 1.13.5h136.74L78.7 65.32a12.2 12.2 0 0 1-18.4 0Z" fill="#81B3D3" stroke="#000"/><path d="M100 1.2 69 37.42 37.9 1l62.1.2Z" fill="#23A9E1" stroke="#000"/><path d="m77.03 13.97.17.15H61.38c-.3-.13-.7-.28-1.13-.44l-.6-.22c-.71-.27-1.42-.57-1.96-.9a2.77 2.77 0 0 1-.61-.49c-.14-.15-.2-.28-.2-.38-.02-.17.08-.54.95-1.12a3.73 3.73 0 0 1 1.76-.62c.46-.03.89.03 1.36.1l.16.02c.53.08 1.12.15 1.76 0a4.38 4.38 0 0 0 2.05-1.14 2.43 2.43 0 0 1 2.13-.6c.79.14 1.62.55 2.4 1.08A15.97 15.97 0 0 1 72 11.59a5.3 5.3 0 0 0 .3.26c.02.01.07.05.13.07.03 0 .28.09.5-.1.22-.2.51-.24.95-.1.45.14.98.46 1.53.89.53.4 1.04.86 1.52 1.29l.09.07Zm7.99-4.66c.52.34 1.1.79 1.74 1.35l-7.4.07c1.54-1.61 2.62-2.2 3.65-2.17.6.02 1.23.26 2 .75Z" fill="#fff" stroke="#000"/><mask id="a" fill="#fff"><path d="M97.88 3.58V1.2h2.1l-2.1 2.4Zm-49.34 9.35c.1.1 2.4-2.38 6.11-4.87 3.41-2.29 8.63-4.88 14.45-4.88 5.81 0 11.13 2.69 14.54 4.98 3.7 2.39 6.01 4.77 6.11 4.87l-2.5 2.99c-4.52.6-7.73 3.88-12.14 3.18-2.2-.4-2.3-1.59-2.9-2.88-.5-1-1.31-.8-2.31-1.2-.9-.4-1.5-1.1-3.41-.7-1.6.4-1.8 2.9-3.91 2.8-1.1-.1-1.2-1.6-2.81-3.59-4.11-4.87-7.92-4.18-10.53.3L68.89 37.1 48.54 12.93ZM40.1 1.2v1.9l-1.6-1.9h1.6Zm54.06 0h3.2v2.99l-3.2 3.78V1.19Zm-4.12 11.35V1.19h3.51v7.37l-3.5 3.98s.1 0 0 0Zm-.5-10.35v9.85c-1.1-1.1-2.3-2.1-3.6-2.99l3.6-6.86Zm-4.1-.3v6.77c-.51-.3-.91-.7-1.51-1-.7-.4-1.4-.9-2.2-1.3l3.7-4.47Zm-4.42-.2v4.28c-1-.5-2.1-1-3.11-1.5l3.1-2.78Zm.6-.5h3.71l-3.7 4.58V1.19Zm4.31 0h3.61l-3.6 7.07V1.19Zm-8.82 0h3.9l-3.5 3.09c-.1 0-.2-.1-.3-.1l-.1-2.99Zm-.5.4v2.39c-1-.4-2-.7-3.11-.9l3.1-1.49Zm-4.22 0v1.3l-2.2-.3 2.2-1Zm-6.81 0 2.2 1c-.8 0-1.5.1-2.2.3v-1.3Zm-4.12 0 3.11 1.5c-1.1.2-2.1.5-3.1.89V1.59Zm3.61 1.2-3.3-1.6h3.3v1.6Zm3.51-.4-2.8-1.3h2.8v1.3Zm.7-1.2h2.91l-2.9 1.3v-1.3Zm3.72 0h3.2l-3.2 1.6v-1.6ZM60.57 4.28l-3.5-3.09h3.9v2.99l-.4.1Zm-3.6-2.59 3.1 2.69c-1.1.4-2.1.9-3.1 1.49V1.69Zm-4.32.2 3.6 4.48c-1.3.7-2.5 1.49-3.6 2.39V1.89Zm-4.21.3 3.6 6.96c-1.3 1-2.5 2-3.6 3.19V2.19Zm3.7 5.97-3.6-7.07h3.6v7.07Zm4.32-2.49L52.75 1.1h3.7v4.58Zm-12.64 1.8-3.2-3.79V1.2h3.2v6.27Zm.6-6.28h3.52v11.15l-3.51-4.18V1.19ZM69.3 0H36.1v14.53L69 54.23l.2-.3 33.09-39V0h-33Z"/></mask><path d="M97.88 3.58V1.2h2.1l-2.1 2.4Zm-49.34 9.35c.1.1 2.4-2.38 6.11-4.87 3.41-2.29 8.63-4.88 14.45-4.88 5.81 0 11.13 2.69 14.54 4.98 3.7 2.39 6.01 4.77 6.11 4.87l-2.5 2.99c-4.52.6-7.73 3.88-12.14 3.18-2.2-.4-2.3-1.59-2.9-2.88-.5-1-1.31-.8-2.31-1.2-.9-.4-1.5-1.1-3.41-.7-1.6.4-1.8 2.9-3.91 2.8-1.1-.1-1.2-1.6-2.81-3.59-4.11-4.87-7.92-4.18-10.53.3L68.89 37.1 48.54 12.93ZM40.1 1.2v1.9l-1.6-1.9h1.6Zm54.06 0h3.2v2.99l-3.2 3.78V1.19Zm-4.12 11.35V1.19h3.51v7.37l-3.5 3.98s.1 0 0 0Zm-.5-10.35v9.85c-1.1-1.1-2.3-2.1-3.6-2.99l3.6-6.86Zm-4.1-.3v6.77c-.51-.3-.91-.7-1.51-1-.7-.4-1.4-.9-2.2-1.3l3.7-4.47Zm-4.42-.2v4.28c-1-.5-2.1-1-3.11-1.5l3.1-2.78Zm.6-.5h3.71l-3.7 4.58V1.19Zm4.31 0h3.61l-3.6 7.07V1.19Zm-8.82 0h3.9l-3.5 3.09c-.1 0-.2-.1-.3-.1l-.1-2.99Zm-.5.4v2.39c-1-.4-2-.7-3.11-.9l3.1-1.49Zm-4.22 0v1.3l-2.2-.3 2.2-1Zm-6.81 0 2.2 1c-.8 0-1.5.1-2.2.3v-1.3Zm-4.12 0 3.11 1.5c-1.1.2-2.1.5-3.1.89V1.59Zm3.61 1.2-3.3-1.6h3.3v1.6Zm3.51-.4-2.8-1.3h2.8v1.3Zm.7-1.2h2.91l-2.9 1.3v-1.3Zm3.72 0h3.2l-3.2 1.6v-1.6ZM60.57 4.28l-3.5-3.09h3.9v2.99l-.4.1Zm-3.6-2.59 3.1 2.69c-1.1.4-2.1.9-3.1 1.49V1.69Zm-4.32.2 3.6 4.48c-1.3.7-2.5 1.49-3.6 2.39V1.89Zm-4.21.3 3.6 6.96c-1.3 1-2.5 2-3.6 3.19V2.19Zm3.7 5.97-3.6-7.07h3.6v7.07Zm4.32-2.49L52.75 1.1h3.7v4.58Zm-12.64 1.8-3.2-3.79V1.2h3.2v6.27Zm.6-6.28h3.52v11.15l-3.51-4.18V1.19ZM69.3 0H36.1v14.53L69 54.23l.2-.3 33.09-39V0h-33Z" fill="#491213"/><path d="M97.88 3.58h-1v2.65l1.75-1.99-.75-.66Zm0-2.39v-1h-1v1h1Zm2.1 0 .75.67L102.2.19h-2.22v1ZM48.54 12.93l.7-.7-1.47 1.35.77-.65Zm6.11-4.87.56.83-.56-.83Zm28.99.1-.56.83h.02l.54-.83Zm6.11 4.87.77.65.6-.7-.66-.66-.7.71Zm-2.5 2.99.13.99.38-.05.25-.3-.76-.64ZM75.1 19.2l-.18.99h.02l.16-.99Zm-2.9-2.88.9-.43v-.01l-.01-.01-.9.45Zm-2.31-1.2-.4.92h.01l.02.01.37-.93Zm-3.41-.7-.2-.97h-.04l.24.98Zm-3.91 2.8-.1.99h.05l.05-1Zm-2.81-3.59.78-.63h-.01v-.01l-.77.64Zm-10.53.3-.87-.5-.35.6.46.55.76-.65ZM68.89 37.1l-.76.65 1.53-1.3-.77.65ZM40.11 1.19h1v-1h-1v1Zm0 1.9-.76.64 1.76 2.08V3.08h-1Zm-1.6-1.9v-1h-2.16l1.4 1.65.76-.65Zm55.66 0v-1h-1v1h1Zm3.2 0h1v-1h-1v1Zm0 2.99.77.65.24-.28v-.37h-1Zm-3.2 3.78h-1v2.72l1.76-2.07-.76-.65Zm-4.12 4.58h-1v1h1v-1Zm0-11.35v-1h-1v1h1Zm3.51 0h1v-1h-1v1Zm0 7.37.75.66.25-.29v-.37h-1Zm-4-6.37h1l-1.9-.47.9.47Zm0 9.85-.71.7 1.7 1.7v-2.4h-1Zm-3.62-2.99-.88-.46-.42.78.74.5.56-.82Zm-.5-7.16h1V-.88l-1.77 2.13.77.64Zm0 6.77-.51.85 1.51.9V8.66h-1Zm-1.5-1-.5.87.03.01.02.02.45-.9Zm-2.2-1.3-.78-.63-.8.97 1.13.56.44-.9Zm-.71-4.67h1V-.55L80.36.95l.67.74Zm0 4.28-.45.9 1.45.71V5.97h-1Zm-3.11-1.5-.67-.74-1.1.99 1.33.65.44-.9Zm3.71-3.28v-1h-1v1h1Zm3.71 0 .78.63L87.44.2h-2.1v1Zm-3.7 4.58h-1v2.82L82.4 6.4l-.78-.63Zm4.3-4.58v-1h-1v1h1Zm3.61 0 .9.46.74-1.46h-1.64v1Zm-3.6 7.07h-1l1.88.45-.89-.45Zm-8.83-7.07v-1h-1.04l.04 1.04 1-.04Zm3.9 0 .67.76 2-1.76h-2.66v1Zm-3.5 3.09v1h.38l.28-.25-.66-.75Zm-.3-.1-1 .03.03.97h.97v-1Zm-.6-2.59h1V0L76.18.7l.44.9Zm0 2.39-.37.93 1.37.54V3.98h-1Zm-3.11-.9-.44-.9-2.78 1.34 3.04.55.18-.99ZM72.4 1.6h1V.04l-1.42.64.41.91Zm0 1.3-.15.99 1.14.16V2.89h-1Zm-2.21-.3-.41-.91-3.25 1.46 3.54.44.12-1Zm-4.61-1 .4-.91-1.4-.64V1.6h1Zm2.2 1v1l.41-1.91-.4.9Zm-2.2.3h-1V4.2l1.27-.36-.27-.96Zm-4.12-1.3.44-.9L60.47 0v1.6h1Zm3.11 1.5.18.98 3.04-.55-2.78-1.34-.44.9Zm-3.1.89h-1v1.47l1.36-.54-.37-.93Zm3.6-1.2-.43.9 1.43.7v-1.6h-1Zm-3.3-1.59v-1l-.44 1.9.43-.9Zm3.3 0h1v-1h-1v1Zm3.51 1.2-.41.9 1.41.66V2.39h-1Zm-2.8-1.3v-1L65.37 2l.42-.9Zm2.8 0h1v-1h-1v1Zm.7.1v-1h-1v1h1Zm2.91 0 .41.92-.4-1.92v1Zm-2.9 1.3h-1v1.54l1.4-.63-.4-.91Zm3.7-1.3v-1h-1v1h1Zm3.22 0 .44.9-.44-1.9v1ZM73 2.8h-1v1.6l1.44-.7-.44-.9ZM60.57 4.28l-.66.75.4.34.5-.12-.24-.97Zm-3.5-3.09v-1H54.4l2 1.76.65-.76Zm3.9 0h1v-1h-1v1Zm0 2.99.24.97.76-.19v-.78h-1Zm-4-2.49.64-.76-1.65-1.42v2.18h1Zm3.1 2.69.34.94 1.6-.58-1.29-1.12-.65.76Zm-3.1 1.49h-1v1.76l1.5-.9-.5-.86Zm-4.32-3.98.78-.63-1.78-2.2v2.83h1Zm3.6 4.48.48.88 1.07-.57-.76-.94-.78.63Zm-3.6 2.39h-1v2.1l1.63-1.33-.63-.77Zm-4.21-6.57.88-.46-1.88.46h1Zm3.6 6.96.61.8.67-.51-.39-.75-.88.46Zm-3.6 3.19h-1v2.55l1.73-1.87-.73-.68Zm3.7-4.18-.88.45 1.89-.45h-1Zm-3.6-7.07v-1H46.9l.75 1.46.89-.46Zm3.6 0h1v-1h-1v1Zm4.32 4.58-.78.63 1.78 2.2V5.66h-1ZM52.75 1.1v-1h-2.1l1.32 1.63.78-.63Zm3.7 0h1v-1h-1v1ZM43.83 7.46l-.76.65 1.76 2.08V7.46h-1Zm-3.2-3.78h-1v.37l.23.28.76-.65Zm0-2.49v-1h-1v1h1Zm3.2 0h1v-1h-1v1Zm.6 0v-1h-1v1h1Zm3.52 0h1v-1h-1v1Zm0 11.15-.77.64 1.77 2.1v-2.74h-1Zm-3.51-4.18h-1v.36l.23.28.77-.64ZM36.1 0v-1h-1v1h1Zm0 14.53h-1v.36l.23.27.77-.63ZM69 54.23l-.78.63.86 1.03.75-1.11-.83-.56Zm.2-.3-.77-.65-.03.04-.03.05.83.55Zm33.09-39 .76.64.24-.28v-.37h-1Zm0-14.93h1v-1h-1v1Zm-3.41 3.58V1.2h-2v2.4h2Zm-1-1.39h2.1v-2h-2.1v2ZM99.23.53l-2.1 2.39 1.5 1.32 2.1-2.38-1.5-1.33Zm-51.4 13.11a1.02 1.02 0 0 0 1.25.15l.22-.15.38-.33 1.22-1.1a42.7 42.7 0 0 1 4.31-3.32L54.1 7.23a44.67 44.67 0 0 0-4.52 3.48l-1.23 1.1a7.7 7.7 0 0 1-.3.26c-.03.03-.01.01.03-.01.02-.01.1-.06.23-.1a.99.99 0 0 1 .93.26l-1.4 1.42Zm7.38-4.75c3.33-2.24 8.35-4.7 13.89-4.7v-2c-6.1 0-11.51 2.7-15 5.04l1.11 1.66Zm13.89-4.7c5.52 0 10.64 2.56 13.98 4.8l1.11-1.66c-3.48-2.34-9-5.15-15.1-5.15v2Zm14 4.8c3.61 2.34 5.86 4.66 5.95 4.75l1.4-1.42-.03-.04a22.43 22.43 0 0 0-1.72-1.58 40.85 40.85 0 0 0-4.52-3.38L83.1 9Zm5.89 3.4-2.5 2.98 1.52 1.3 2.5-3L89 12.4Zm-1.87 2.64c-2.43.32-4.53 1.37-6.37 2.14-1.89.8-3.57 1.35-5.48 1.04l-.31 1.98c2.5.4 4.62-.35 6.57-1.17 2-.85 3.76-1.73 5.85-2.01l-.26-1.98Zm-11.83 3.19c-.9-.17-1.23-.46-1.43-.72a3.15 3.15 0 0 1-.34-.64l-.4-.97-1.82.85.38.91c.14.32.31.69.57 1.04.56.75 1.39 1.26 2.68 1.5l.36-1.97Zm-2.2-2.35a2.58 2.58 0 0 0-.7-.89 2.64 2.64 0 0 0-.85-.44l-.7-.18c-.2-.05-.4-.1-.57-.17l-.74 1.86c.32.13.61.2.85.26l.55.14c.13.04.19.07.22.1a.6.6 0 0 1 .16.22l1.79-.9ZM70.3 14.2c-.18-.08-.33-.17-.57-.3a4.73 4.73 0 0 0-3.44-.46l.4 1.95c.8-.16 1.24-.09 1.55.02.17.06.34.14.54.25.18.1.44.25.71.37l.81-1.83Zm-4.05-.75c-.65.16-1.12.52-1.47.89-.33.34-.64.77-.85 1.04-.48.61-.77.85-1.3.82l-.1 2c1.57.07 2.43-.88 2.98-1.59.3-.39.48-.65.7-.88.2-.21.36-.3.52-.34l-.48-1.94Zm-3.58 2.76c-.02 0-.03 0-.07-.05a2.63 2.63 0 0 1-.37-.54c-.34-.58-.82-1.55-1.68-2.63l-1.56 1.26c.74.91 1.11 1.68 1.5 2.37.35.6.88 1.48 2 1.58l.18-2Zm-2.14-3.23c-2.14-2.54-4.4-3.87-6.66-3.72-2.27.16-4.12 1.79-5.5 4.16l1.73 1c1.23-2.1 2.6-3.07 3.9-3.16 1.33-.1 3.03.67 5 3L60.53 13Zm-12.05 1.59 19.65 23.18 1.53-1.3L50 13.28l-1.52 1.3Zm21.18 21.89L49.3 12.29l-1.53 1.29 20.36 24.17 1.53-1.28ZM39.11 1.19v1.9h2v-1.9h-2Zm1.77 1.25-1.6-1.9-1.53 1.3 1.6 1.9 1.53-1.3Zm-2.37-.25h1.6v-2h-1.6v2Zm55.66 0h3.2v-2h-3.2v2Zm2.2-1v2.99h2V1.19h-2Zm.24 2.34-3.2 3.78 1.52 1.3 3.2-3.78-1.52-1.3Zm-1.44 4.43V1.19h-2v6.77h2Zm-4.12 4.58V1.19h-2v11.35h2Zm-1-10.35h3.51v-2h-3.5v2Zm2.51-1v7.37h2V1.19h-2Zm.25 6.7-3.5 3.98 1.5 1.33 3.5-3.98-1.5-1.33Zm-2.76 5.65h.04v-2h-.03v2h.03v-2h-.03v2Zm-1.5-11.35v9.85h2V2.19h-2Zm1.7 9.14a27.07 27.07 0 0 0-3.74-3.1l-1.13 1.65c1.25.86 2.4 1.82 3.47 2.87l1.4-1.42Zm-3.42-1.81 3.6-6.87-1.76-.93-3.61 6.87 1.77.93Zm-2.39-7.63v6.77h2V1.89h-2Zm1.51 5.9c-.2-.11-.37-.24-.63-.44-.25-.18-.56-.4-.94-.59l-.89 1.8c.23.1.42.24.65.4.2.16.49.37.79.55l1.02-1.71Zm-1.52-1c-.33-.19-.65-.4-1.03-.63-.37-.23-.78-.47-1.22-.69l-.9 1.8c.37.17.71.38 1.07.6.34.2.72.45 1.1.66l.98-1.74Zm-1.93.22 3.71-4.48-1.54-1.28-3.7 4.48L82.5 7Zm-2.47-5.32v4.28h2V1.69h-2Zm1.44 3.38c-.5-.25-1.04-.5-1.57-.75l-1.54-.74-.88 1.8c.5.25 1.04.5 1.57.75l1.53.74.9-1.8Zm-2.88.15 3.1-2.78-1.33-1.5-3.1 2.8 1.33 1.48Zm3.04-3.03h3.71v-2h-3.7v2ZM84.56.56l-3.7 4.58L82.4 6.4l3.7-4.58L84.57.56Zm-1.93 5.21V1.19h-2v4.58h2Zm3.31-3.58h3.61v-2h-3.6v2ZM88.66.74l-3.6 7.06 1.77.91 3.61-7.06-1.78-.91Zm-1.72 7.52V1.19h-2v7.07h2Zm-9.82-6.07h3.9v-2h-3.9v2ZM80.37.44l-3.51 3.09 1.32 1.5 3.5-3.08-1.31-1.5Zm-2.85 2.84c.14 0 .24.03.27.05.04 0 .06.02.02 0l-.17-.07a1.21 1.21 0 0 0-.42-.08v2a.79.79 0 0 1-.28-.05c-.03-.01-.05-.02-.02 0l.18.07c.08.03.23.08.42.08v-2Zm.7.86-.1-2.98-2 .07.1 2.98 2-.07Zm-2.6-2.55v2.39h2V1.59h-2Zm1.37 1.46a16.97 16.97 0 0 0-3.3-.95l-.36 1.97c1.03.18 1.97.46 2.92.84l.74-1.86Zm-3.05.94 3.1-1.5-.86-1.8-3.1 1.5.86 1.8Zm-2.54-2.4v1.3h2v-1.3h-2Zm1.14.3c-.7-.1-1.4-.2-2.22-.3l-.24 1.99 2.18.3.28-1.98Zm-1.93 1.6 2.2-.99L72 .68l-2.2 1 .82 1.82Zm-5.44-.99 2.21 1 .82-1.82-2.2-1-.83 1.82Zm2.62-.91c-.89 0-1.68.1-2.48.33l.55 1.93a6.88 6.88 0 0 1 1.93-.26v-2Zm-1.2 1.3v-1.3h-2v1.3h2Zm-5.55-.4L64.15 4l.87-1.8L61.9.68l-.87 1.8Zm3.37-.39c-1.18.21-2.25.53-3.3.95l.73 1.86c.95-.38 1.89-.66 2.92-.84L64.4 2.1Zm-1.94 1.88V1.59h-2v2.39h2Zm3.05-2.1L62.2.3l-.87 1.8 3.31 1.6.87-1.8Zm-3.75.31h3.31v-2h-3.3v2Zm2.31-1v1.6h2v-1.6h-2Zm4.93.29-2.8-1.3L65.36 2l2.8 1.3.84-1.82Zm-3.22.61h2.8v-2h-2.8v2Zm1.8-1v1.3h2v-1.3h-2Zm1.7 1.1h2.91v-2h-2.9v2ZM71.8.28l-2.9 1.3.81 1.82 2.91-1.3L71.8.29Zm-1.5 2.2V1.2h-2v1.3h2Zm2.72-.29h3.2v-2h-3.2v2ZM75.77.3l-3.2 1.6.88 1.8 3.21-1.6-.89-1.8Zm-1.76 2.5v-1.6h-2v1.6h2Zm-12.78.74L57.73.44l-1.33 1.5 3.51 3.09 1.32-1.5Zm-4.17-1.34h3.91v-2h-3.9v2Zm2.91-1v2.99h2V1.19h-2Zm.76 2.02-.4.1.48 1.94.4-.1-.48-1.94Zm-4.42-.76 3.1 2.68 1.31-1.5-3.1-2.7-1.31 1.52Zm3.42.99c-1.17.42-2.23.95-3.28 1.57l1.02 1.72c.96-.57 1.9-1.04 2.94-1.41l-.68-1.88Zm-1.77 2.43V1.69h-2v4.18h2Zm-6.09-3.35L55.48 7l1.56-1.26-3.61-4.48-1.56 1.26Zm3.92 2.97a23.63 23.63 0 0 0-3.77 2.49l1.26 1.55c1.05-.85 2.2-1.61 3.45-2.28l-.94-1.76Zm-2.14 3.27V1.89h-2v6.87h2Zm-6.1-6.11 3.6 6.96 1.78-.92-3.6-6.96-1.78.92Zm3.89 5.7c-1.32 1.02-2.58 2.05-3.74 3.3l1.47 1.37a26.48 26.48 0 0 1 3.48-3.07l-1.21-1.6Zm-2 3.99V2.19h-2v10.15h2Zm3.6-4.64L49.43.64l-1.78.9 3.6 7.07 1.79-.9Zm-4.5-5.6h3.6v-2h-3.6v2Zm2.6-1v7.06h2V1.09h-2Zm6.1 3.94L53.53.46l-1.56 1.26 3.71 4.58 1.56-1.26Zm-4.5-2.95h3.72v-2h-3.71v2Zm2.72-1v4.58h2V1.1h-2ZM44.59 6.81l-3.21-3.78-1.53 1.3 3.21 3.78 1.53-1.3ZM41.6 3.68V1.2h-2v2.5h2Zm-1-1.49h3.21v-2h-3.2v2Zm2.21-1v6.27h2V1.2h-2Zm1.6 1h3.52v-2h-3.51v2Zm2.52-1v11.15h2V1.19h-2Zm1.76 10.5-3.5-4.17-1.54 1.28 3.51 4.18 1.53-1.29Zm-3.27-3.53V1.19h-2v6.97h2ZM69.3-1H36.1v2h33.2v-2ZM35.1 0v14.53h2V0h-2Zm.23 15.16 32.9 39.7 1.53-1.28-32.89-39.7-1.54 1.28Zm34.5 39.62.2-.3-1.66-1.11-.2.3 1.66 1.11Zm.13-.2 33.1-39.01-1.53-1.3-33.1 39 1.53 1.3Zm33.33-39.66V0h-2v14.92h2Zm-1-15.92h-33v2h33v-2Z" fill="#000" mask="url(#a)"/><path d="m69 49-2.02-3.23L69 42.53 71 45.77 69 49Z" fill="#23A9E1" stroke="#000"/><path d="M63.98 24.77c-3.7.7-.73 2.18 1.58 1.5l-1.58-1.5Zm0 0c2.3-.5 4.7.5 1.63 1.49l-1.63-1.49Zm1.58 1.4Zm0 0-.13-.38.13.38Zm-.78-8.66c-.5.28-.98.41-1.42.53-.98.27-1.72.48-1.79 2.06-.06 1.27.37 1.55.8 1.11l.03-.15V21c.04-.32.08-.61.08-.9h.5l.48.15a3.76 3.76 0 0 1-.6 1.18c-.1.82-.1 1.6.62 2.25m1.3-6.17.24.44m-.24-.44c.4-.21.74-.6 1.09-1.01.8-.93 1.62-1.89 3.23-.78.42.3.88.36 1.29.41l.27.05-.78.38m-5.1.95.25.44m0 0c-.46.25-.9.4-1.27.5l-.29.08c-.26.07-.47.13-.66.21a1 1 0 0 0-.5.38c-.11.18-.21.48-.24 1-.01.3 0 .52.03.66m2.92-2.83c.42-.22.75-.58 1.04-.9l.2-.24c.22-.26.42-.49.64-.68.27-.24.52-.38.78-.4.26-.03.62.05 1.13.4m-6.7 4.65a.7.7 0 0 1-.13.12l-.02.01h.03c.05-.01.1 0 .15.04a.1.1 0 0 1 .02.02l-.02-.04a.8.8 0 0 1-.04-.15Zm0 0 .02-.04c.12-.17.26-.43.37-.8l.98.16c0 .35-.04.7-.08 1.02v.05c-.05.3-.08.58-.08.84-.02.52.09.92.49 1.3m0 0v-.01l-.33.38m.33-.38-.33.38m.33-.38c.42.35 1.15.35 2.03-.01a5.48 5.48 0 0 0 1.62-1.04m-3.98 1.43c1.15.97 3.33-.1 4.37-1.1-.16-.1-.28-.2-.39-.33m0 0a1.73 1.73 0 0 1-.38-1.02c-.03-.56.12-1.18.35-1.75.23-.58.55-1.16.9-1.63.33-.46.74-.88 1.15-1.09l.4-.2m-2.42 5.7c.13-.13.25-.25.33-.37l.05.04.65.69m0 0c.17.39.46.68.93.84-.07-.19-.1-.4-.1-.6m-.83-.24.1-.14.27-.36m-.37.5-.16-.92.06.03.45.2m.48.93c.12.08.3.15.51.18-.17-1.28 1.07-4.49 1.57-5.68a.43.43 0 0 1-.05-.01.88.88 0 0 1-.2-.22.5.5 0 0 1-.03-.08m-1.8 5.81a.89.89 0 0 1-.24-.22c-.1-.13-.17-.3-.22-.52m.46.74v-.37c.06-.7.29-1.58.55-2.43a33.84 33.84 0 0 1 1.15-3.09l.04-.08m.06.16.44-.06a.66.66 0 0 1 .04-.08h-.5l.02.14Zm0 0a.62.62 0 0 0-.06-.16m0 0a5.98 5.98 0 0 1 .1-.2.57.57 0 0 1 .11-.15l.1-.07a1.17 1.17 0 0 0-.64-.28l-.22.47m.55.23a.3.3 0 0 0-.1-.1c-.08-.06-.2-.1-.43-.13h-.02m0 0a9.27 9.27 0 0 0-.63-.1m.63.1-.36.76a13.2 13.2 0 0 0-1.3 3.98c-.02.2-.02.37-.01.52m1.04-5.36a2.82 2.82 0 0 1-1.07-.43m0 0 .29-.41-.29.41Zm.05 5.99a2.12 2.12 0 0 1-.02-.2m.02.2.1-.14-.12-.06m1.15 13.18c-.32.23-.67.34-1 .34-.29 0-.6-.09-.88-.3.03 0 .07-.02.1-.04.21-.1.44-.26.56-.5.05-.1.08-.2.08-.3l.67.44a4.45 4.45 0 0 1 .47.36Zm-.32-1.26-.84.23a.86.86 0 0 0-.11-.25c-.12-.18-.3-.32-.46-.42l-.26-.14c.94-.03 1.92.03 2.88.1-.34.19-.77.36-1.21.48Zm2.25-2.6c.16 0 .34.04.52.12a4.64 4.64 0 0 1-1.36.22c.28-.24.57-.34.84-.34Zm-1.75.35c-.52 0-1.08-.03-1.64-.1a12.78 12.78 0 0 1-3.19-.75 5.32 5.32 0 0 1-.97-.5 50.63 50.63 0 0 0 .77 0c.66.01 1.35.02 2 .08.71.06 1.36.17 1.9.38.52.2.9.5 1.13.89Zm-.27-6.42v.01l.02.01c.1.07.15.12.17.15v.03c0 .01-.02.1-.18.22-.27.2-.7.3-1.02.2-.09-.32 0-.61.14-.76a.37.37 0 0 1 .28-.11c.12 0 .32.05.59.25Zm.3-.4c1.2.8-.6 2-1.7 1.4l1.7-1.4ZM59 22.38h-.03c-1.26 0-1.88-.46-2.18-1.05a3.86 3.86 0 0 1-.1-2.55c.22-.97.68-1.94 1.17-2.61.25-.34.5-.59.7-.73.21-.14.33-.14.37-.13.3.1.62.48.86 1.23.23.73.33 1.67.3 2.6a7.5 7.5 0 0 1-.42 2.44c-.12.31-.26.53-.39.66-.12.12-.21.15-.29.14Zm-6.72-8.72c-.02.14-.04.31-.04.5a.87.87 0 0 1-.43-.23c-.1-.1-.14-.25-.08-.48.13-.5.7-1.12 1.45-1.33h.01c.32-.1.78-.1 1.33 0 .55.08 1.15.26 1.75.49.76.28 1.48.65 2.05 1-.59.1-1.21.17-1.86.2-.52.04-1.05.05-1.57.06h-.16l-.94.04a3.4 3.4 0 0 0-.17-.68.9.9 0 0 0-.27-.4.58.58 0 0 0-.75.03.9.9 0 0 0-.23.39l-.1.4ZM74.3 29.8A5.45 5.45 0 0 1 73 28.72c-.3-.36-.36-.64-.33-.86.04-.24.2-.52.58-.85.37-.32.9-.65 1.58-.99.4-.19.92-.5 1.45-.83l.14-.09c.5-.31 1.04-.64 1.57-.93a7.47 7.47 0 0 1 1.78-.74l-5.46 6.37Zm-7.34-1.57c-.09.1-.25.23-.54.39a14.46 14.46 0 0 0-1.9-.3c-.55-.07-1.1-.13-1.53-.22a5.7 5.7 0 0 1-.24-.05c.13-.07.3-.14.5-.22.07-.03.23-.06.46-.08.23-.02.5-.02.8-.02.61.02 1.28.1 1.8.23a2.55 2.55 0 0 1 .66.26l-.01.01Zm.05-.07Z" fill="#DC6243" stroke="#000"/><path d="m84.44 18 .28-.16-.1.14v.01c-.4.56-.84 1.17-1.29 1.73-.45.57-.9 1.08-1.32 1.44-.44.38-.77.53-.98.53l-.56-.01c-.44-.01-.92-.02-1.37.02l.16-.1c.54-.37 1.18-.83 1.84-1.32l.71-.51c.92-.67 1.85-1.32 2.63-1.77Zm-8.6 5c.33-.06.65-.14.93-.22-.64.52-1.44.93-2.26 1.3-.47.21-.94.4-1.4.58l-.02.01c-.33.13-.66.26-.96.4a1.5 1.5 0 0 1-.3-.51c-.03-.14 0-.22.05-.3.07-.1.22-.23.5-.36.26-.13.59-.24.97-.35.53-.14 1.1-.26 1.68-.37l.82-.17Z" fill="#F49774" stroke="#000"/><path d="m72.96 21.59-.16-.02-.14.08a.6.6 0 0 1-.62 0c-.21-.12-.39-.35-.46-.59-.08-.24-.04-.4.04-.49.07-.09.3-.24.93-.17.88.1 1.77.05 2.61.02l.21-.01a20.4 20.4 0 0 1 1.53-.02 5.3 5.3 0 0 1-3.94 1.2Z" fill="#F4B1A4" stroke="#000"/><mask id="b" fill="#fff"><path d="M51.25 20.8c.3.4.6.79.5 1.39 0 .4-.6 1-.2 1.19l1.5-1.8c-.4-.09-3.51-3.77-3.51-4.17l-2.1 1.1c.1.4.8 0 1.2 0 .5 0 .9.4 1.3.7-1.1.89-3.8 3.27-4.11 3.27-.1 0-.7-.4-.7 0 0 .2.6.7.7.8l1.4 1.7c.4-.2-.1-.5.1-.8.1-.2 3.21-2.69 3.92-3.39Zm-3.41-4.48c.3-.1.4.3.6 0l-1.6-1.9c-.2-.3-.5-.6-.5 0 .1.4-4.02 3.69-4.22 3.79-.3.1-.5-.3-.7.1l1.4 1.69c.2.2.3.4.5.6.2.2.1-.4.1-.4-.1-.3.3-.6.6-.8 1-1 3.51-3.08 3.82-3.08Zm-5.72-.6c-1.1.3-2.4-.1-2.7-1.3-.4-1.19.4-2.38 1.3-3.08.9-.7 2.3-.6 2.8.5.2.5.1 1.1-.1 1.6-.1.29-.4.59 0 .79.6-.7 1.1-1.4 1.7-2.1-.7-.39-1-1.09-1.5-1.68-.6-.7-1.3-1.4-2.3-1.5-1.9-.3-3.61 1.7-3.81 3.39-.1.9.2 1.79.8 2.58.5.6 1.2 1.1 1.6 1.8.2.1 1.8-.7 2.1-.8.21 0 .1-.1.1-.2 0 0-.5.2 0 0ZM67.69 39.2c-.7-.5-2.6-2.99-3-3.48l-.2-.3-.2.1c-.1.1.1.4 0 .6-.5.8-3.72 3.18-3.92 3.38-.4.2-.8-.1-1 .2.5.6 1.8 2.28 2 2.28.3 0 .1-.5.1-.6.1-.2 1.7-1.58 2.31-2.08.2-.2.4.3.6.5.2.3.3.7.2 1-.1.19-.5.59-.2.79.4-.5 1.5-1.8 1.7-2 .2-.2-.4 0-.3-.1-.2.1-.5.2-.7 0-.1 0-.7-.69-.6-.79.3-.2.6-.6 1-.7.6-.1 1 1 1.1 1.4.1.4.1.8-.1 1.1-.1.3-.3.49 0 .59l1.41-1.9c0 .1-.1.1-.2 0 .1.1-.1 0 0 0Zm-9.22-8.86c-.7 0-1.4.3-2.01.8a3.52 3.52 0 0 0-.5 4.78c1.3 1.69 3.4 1.89 5.11.7 1.4-1.2 1.6-3.3.5-4.78-.8-1-2-1.5-3.1-1.5Zm1.2 1.4c.9-.1 1.5.8 1.1 1.79-.4 1-1.4 1.99-2.4 2.39-1.2.5-2.01-.5-1.5-1.7.4-.99 1.4-1.99 2.4-2.38.1 0 .2-.1.4-.1Zm-2.8-4.58c.3 0 .6.4.8 0l-1.41-1.7c-.4.2 0 .4-.1.6-.2.3-1.7.5-2.1.6.1-.4.6-1.69.8-1.79.4-.3.6.3.8-.1l-1.8-2.09c-.2-.2-.4-.7-.6-.4 0 0 0 1-.1 1.1-.11.2-.61 2.39-1.21 2.89-.3.3-1.5 1.29-1.8 1.39-.3.1-.5-.4-.81 0l1.6 1.89c.1.1.4.6.5.6.3.1 0-.6.1-.7.1-.3 1.61-1.8 2.31-1.9.9-.19 2-.49 3.01-.39-.2 0 .2 0 0 0Zm24.26 6.67c.1.4.2.9.1 1.29-.1.6-.6 1.89-1.4 1.5-.8-.4-1.4-1.1-2.11-1.7.5-.6 1-1.1 1.9-.8.2.1.4 0 .2-.2-.3-.2-2-1.29-2.1-1.19-.2.2.3.6.1 1-.1.3-.4.5-.6.8-.5-.4-1.2-.8-.7-1.5.4-.4.8-.8 1.4-.9.4-.1 1.2.3 1.3-.1-.7-.3-1.4-.7-2.1-.99.1.5-2.2 2.89-2.7 3.48-.1.1-.41.4-.41.5 0 .3.4.1.4.1.3-.1 4.41 3.28 4.51 3.58.1.2-.1.4 0 .5 0 0 .1.1.2.1.3-.3 2.91-3.88 3.51-3.98l-1.5-2.39c-.4.2-.1.7 0 .9Zm-4.01 4.37c-1.3-.9-3.61.8-4.01 1-.7.3-1.2-.4-.8-1 .3-.5.9-.8 1.5-.8.2 0 .9.1.9 0 .1-.1.1-.1 0-.2-.6-.39-1.1-.79-1.7-1.09-.1.7-.9 1.1-1.3 1.6-.5.6-1.01 1.29-1.01 1.99s.4 1.39 1.1 1.69c.7.4 1.5.1 2.21-.3.4-.3.8-.6 1.2-.8.6-.3 1.5 0 1.3.8-.2.7-.9 1.3-1.6 1.5-.4.1-.8.1-1.2-.1-.3-.1-.6-.5-.8-.1l2.3 1.58c.1-.5.3-.7.7-.99.5-.4.9-.9 1.3-1.4.81-.89 1.11-2.48-.1-3.38Zm17.65-27.95c0 .1 0 .1 0 0l-.9 1-.8.99c-.2.2-.3.3 0 .5.5-.3 3.5 4.77 3.3 5.47-.5.2-4.51-3.29-4.61-3.49 0-.1.2-.7-.1-.6-.1 0-.5.6-.6.7l-.6.7c.2.3.3 0 .6 0 .2.1 1.2.9 1.5 1.1-.5 0-1.7.1-1.9.1-.6.1-.3-.4-.7-.6l-1.5 1.79-.91 1v.1c.2.2.1.1.4 0 .3-.1 4.31 3.18 4.41 3.38.2.3-.1.6.3.8l1.2-1.4c.1-.1.1-.1 0-.1-.3-.2-.3.1-.7.1-.3-.1-2.9-2.19-3.8-2.99l5.3-.2c.2 0 .71.6.71.8-.1.2-.3.4 0 .5.3-.4.6-.7.9-1.1l.1-.2c.1 0 .1-.1.1-.2l.1-.1c.3-.3 1.2-1.29 1.1-1.39-.3-.3-.4.3-.8 0-.2-.2-.8-1.2-.9-1.39-.2-.3.4-.6.6-.7.5-.3 2.1-.8 2.31.2 0 .2-.2.4-.1.5 0 0 .1.2.2.1l2.1-2.59-.2-.2c-.5.5-5.51-1.49-5.81-1.79-.1-.2-.1-.8-.3-.8Zm-.2 2.58c.8.3 1.5.6 2.3 1l-.6.3c-.2.1-.4.3-.6.5l-1.1-1.8Zm-6.62 7.67c-1.1-.1-2.2.4-3 1.29-1.21 1.5-1.11 3.68.4 4.87 1.5 1.2 3.7.9 4.9-.5 1.2-1.49 1.1-3.68-.4-4.87-.5-.4-1.2-.7-1.9-.8Zm-1.4 1.59c.6 0 1.3.4 1.7.7.8.5 2.2 1.68 1.5 2.68 0-.1.1-.1-.1.1-.8.8-2.2.1-2.9-.5-.7-.5-2.01-1.69-1.2-2.68.3-.2.6-.3 1-.3Zm-3.11 4.27c-1.2-.1-2.41.5-3.31 1.6-.6.8-1.3 1.49-1.9 2.29.2.3.5-.1.8.1.3.2 4.1 3.28 4.1 3.48.1.3-.2.4.1.6.1.1 2.91-3.39 3.21-3.99.4-1.09.1-2.38-.8-3.18.1.1.2.1 0 0-.8-.6-1.5-.9-2.2-.9Zm-1.1 1.6h.3c1.4.4 3.4 2.09 2.1 3.58l-.4.4c-.2.2-4.21-2.99-4.01-3.19.4-.5 1.3-.9 2-.8Z"/></mask><path d="M51.25 20.8c.3.4.6.79.5 1.39 0 .4-.6 1-.2 1.19l1.5-1.8c-.4-.09-3.51-3.77-3.51-4.17l-2.1 1.1c.1.4.8 0 1.2 0 .5 0 .9.4 1.3.7-1.1.89-3.8 3.27-4.11 3.27-.1 0-.7-.4-.7 0 0 .2.6.7.7.8l1.4 1.7c.4-.2-.1-.5.1-.8.1-.2 3.21-2.69 3.92-3.39Zm-3.41-4.48c.3-.1.4.3.6 0l-1.6-1.9c-.2-.3-.5-.6-.5 0 .1.4-4.02 3.69-4.22 3.79-.3.1-.5-.3-.7.1l1.4 1.69c.2.2.3.4.5.6.2.2.1-.4.1-.4-.1-.3.3-.6.6-.8 1-1 3.51-3.08 3.82-3.08Zm-5.72-.6c-1.1.3-2.4-.1-2.7-1.3-.4-1.19.4-2.38 1.3-3.08.9-.7 2.3-.6 2.8.5.2.5.1 1.1-.1 1.6-.1.29-.4.59 0 .79.6-.7 1.1-1.4 1.7-2.1-.7-.39-1-1.09-1.5-1.68-.6-.7-1.3-1.4-2.3-1.5-1.9-.3-3.61 1.7-3.81 3.39-.1.9.2 1.79.8 2.58.5.6 1.2 1.1 1.6 1.8.2.1 1.8-.7 2.1-.8.21 0 .1-.1.1-.2 0 0-.5.2 0 0ZM67.69 39.2c-.7-.5-2.6-2.99-3-3.48l-.2-.3-.2.1c-.1.1.1.4 0 .6-.5.8-3.72 3.18-3.92 3.38-.4.2-.8-.1-1 .2.5.6 1.8 2.28 2 2.28.3 0 .1-.5.1-.6.1-.2 1.7-1.58 2.31-2.08.2-.2.4.3.6.5.2.3.3.7.2 1-.1.19-.5.59-.2.79.4-.5 1.5-1.8 1.7-2 .2-.2-.4 0-.3-.1-.2.1-.5.2-.7 0-.1 0-.7-.69-.6-.79.3-.2.6-.6 1-.7.6-.1 1 1 1.1 1.4.1.4.1.8-.1 1.1-.1.3-.3.49 0 .59l1.41-1.9c0 .1-.1.1-.2 0 .1.1-.1 0 0 0Zm-9.22-8.86c-.7 0-1.4.3-2.01.8a3.52 3.52 0 0 0-.5 4.78c1.3 1.69 3.4 1.89 5.11.7 1.4-1.2 1.6-3.3.5-4.78-.8-1-2-1.5-3.1-1.5Zm1.2 1.4c.9-.1 1.5.8 1.1 1.79-.4 1-1.4 1.99-2.4 2.39-1.2.5-2.01-.5-1.5-1.7.4-.99 1.4-1.99 2.4-2.38.1 0 .2-.1.4-.1Zm-2.8-4.58c.3 0 .6.4.8 0l-1.41-1.7c-.4.2 0 .4-.1.6-.2.3-1.7.5-2.1.6.1-.4.6-1.69.8-1.79.4-.3.6.3.8-.1l-1.8-2.09c-.2-.2-.4-.7-.6-.4 0 0 0 1-.1 1.1-.11.2-.61 2.39-1.21 2.89-.3.3-1.5 1.29-1.8 1.39-.3.1-.5-.4-.81 0l1.6 1.89c.1.1.4.6.5.6.3.1 0-.6.1-.7.1-.3 1.61-1.8 2.31-1.9.9-.19 2-.49 3.01-.39-.2 0 .2 0 0 0Zm24.26 6.67c.1.4.2.9.1 1.29-.1.6-.6 1.89-1.4 1.5-.8-.4-1.4-1.1-2.11-1.7.5-.6 1-1.1 1.9-.8.2.1.4 0 .2-.2-.3-.2-2-1.29-2.1-1.19-.2.2.3.6.1 1-.1.3-.4.5-.6.8-.5-.4-1.2-.8-.7-1.5.4-.4.8-.8 1.4-.9.4-.1 1.2.3 1.3-.1-.7-.3-1.4-.7-2.1-.99.1.5-2.2 2.89-2.7 3.48-.1.1-.41.4-.41.5 0 .3.4.1.4.1.3-.1 4.41 3.28 4.51 3.58.1.2-.1.4 0 .5 0 0 .1.1.2.1.3-.3 2.91-3.88 3.51-3.98l-1.5-2.39c-.4.2-.1.7 0 .9Zm-4.01 4.37c-1.3-.9-3.61.8-4.01 1-.7.3-1.2-.4-.8-1 .3-.5.9-.8 1.5-.8.2 0 .9.1.9 0 .1-.1.1-.1 0-.2-.6-.39-1.1-.79-1.7-1.09-.1.7-.9 1.1-1.3 1.6-.5.6-1.01 1.29-1.01 1.99s.4 1.39 1.1 1.69c.7.4 1.5.1 2.21-.3.4-.3.8-.6 1.2-.8.6-.3 1.5 0 1.3.8-.2.7-.9 1.3-1.6 1.5-.4.1-.8.1-1.2-.1-.3-.1-.6-.5-.8-.1l2.3 1.58c.1-.5.3-.7.7-.99.5-.4.9-.9 1.3-1.4.81-.89 1.11-2.48-.1-3.38Zm17.65-27.95c0 .1 0 .1 0 0l-.9 1-.8.99c-.2.2-.3.3 0 .5.5-.3 3.5 4.77 3.3 5.47-.5.2-4.51-3.29-4.61-3.49 0-.1.2-.7-.1-.6-.1 0-.5.6-.6.7l-.6.7c.2.3.3 0 .6 0 .2.1 1.2.9 1.5 1.1-.5 0-1.7.1-1.9.1-.6.1-.3-.4-.7-.6l-1.5 1.79-.91 1v.1c.2.2.1.1.4 0 .3-.1 4.31 3.18 4.41 3.38.2.3-.1.6.3.8l1.2-1.4c.1-.1.1-.1 0-.1-.3-.2-.3.1-.7.1-.3-.1-2.9-2.19-3.8-2.99l5.3-.2c.2 0 .71.6.71.8-.1.2-.3.4 0 .5.3-.4.6-.7.9-1.1l.1-.2c.1 0 .1-.1.1-.2l.1-.1c.3-.3 1.2-1.29 1.1-1.39-.3-.3-.4.3-.8 0-.2-.2-.8-1.2-.9-1.39-.2-.3.4-.6.6-.7.5-.3 2.1-.8 2.31.2 0 .2-.2.4-.1.5 0 0 .1.2.2.1l2.1-2.59-.2-.2c-.5.5-5.51-1.49-5.81-1.79-.1-.2-.1-.8-.3-.8Zm-.2 2.58c.8.3 1.5.6 2.3 1l-.6.3c-.2.1-.4.3-.6.5l-1.1-1.8Zm-6.62 7.67c-1.1-.1-2.2.4-3 1.29-1.21 1.5-1.11 3.68.4 4.87 1.5 1.2 3.7.9 4.9-.5 1.2-1.49 1.1-3.68-.4-4.87-.5-.4-1.2-.7-1.9-.8Zm-1.4 1.59c.6 0 1.3.4 1.7.7.8.5 2.2 1.68 1.5 2.68 0-.1.1-.1-.1.1-.8.8-2.2.1-2.9-.5-.7-.5-2.01-1.69-1.2-2.68.3-.2.6-.3 1-.3Zm-3.11 4.27c-1.2-.1-2.41.5-3.31 1.6-.6.8-1.3 1.49-1.9 2.29.2.3.5-.1.8.1.3.2 4.1 3.28 4.1 3.48.1.3-.2.4.1.6.1.1 2.91-3.39 3.21-3.99.4-1.09.1-2.38-.8-3.18.1.1.2.1 0 0-.8-.6-1.5-.9-2.2-.9Zm-1.1 1.6h.3c1.4.4 3.4 2.09 2.1 3.58l-.4.4c-.2.2-4.21-2.99-4.01-3.19.4-.5 1.3-.9 2-.8Z" fill="#fff"/><path d="m51.25 20.8.8-.61-.7-.91-.8.8.7.71Zm.5 1.39-.99-.17-.01.08v.09h1Zm-.2 1.19-.45.9.7.35.51-.6-.76-.65Zm1.5-1.8.77.65L54.85 21l-1.56-.38-.24.97Zm-3.51-4.17h1v-1.65l-1.46.76.46.9Zm-2.1 1.1-.47-.9-.7.37.2.77.96-.24Zm2.5.7.63.77 1-.81-1.03-.77-.6.8Zm-4.11 4.07.77-.64-.03-.04-.04-.03-.7.71Zm1.4 1.7-.77.63.51.6.7-.34-.44-.9Zm.1-.8.83.55.04-.05.03-.05-.9-.45Zm.5-7.86v1H48l.15-.05-.31-.95Zm.6 0 .84.55.42-.62-.49-.58-.76.65Zm-1.6-1.9-.83.56.03.05.04.04.76-.64Zm-.5 0h-1v.13l.03.12.97-.24Zm-4.21 3.79.31.95.07-.03.06-.03-.44-.9Zm-.7.1-.9-.45-.3.58.43.5.77-.63Zm1.4 1.69-.76.64.02.04.04.03.7-.71Zm.6.2.99-.17-.01-.08-.03-.07-.95.32Zm.6-.8.56.83.08-.05.07-.07-.7-.7Zm-1.9-3.68h1v-1.3l-1.26.33.26.97Zm-2.7-1.3.96-.24v-.04l-.02-.03-.95.32Zm4.1-2.58.93-.37v-.03l-.02-.02-.9.42Zm-.1 1.6-.92-.38-.02.02v.03l.94.32Zm0 .79-.44.9.7.34.5-.59-.76-.65Zm1.7-2.1.76.66.8-.92-1.06-.6-.5.87Zm-1.5-1.68.77-.65h-.01l-.76.65Zm-2.3-1.5-.16 1h.06l.1-1Zm-3.81 3.39-1-.12 1 .12Zm.8 2.58-.8.6.02.03.01.02.77-.65Zm1.6 1.8-.86.5.15.26.27.13.44-.9Zm2.1-.8v-1h-.15l-.15.05.3.95ZM67.7 39.2l.7-.71-.05-.06-.07-.05-.58.82Zm-3-3.48-.84.55.03.04.02.03.78-.62Zm-.2-.3.82-.56-.49-.73-.78.4.44.89Zm-.2.1-.45-.9-.15.07-.11.12.7.7Zm0 .6.84.53.02-.04.03-.05-.9-.45Zm-3.92 3.38.45.9.14-.08.12-.11-.7-.71Zm-1 .2-.83-.56-.42.62.48.58.77-.64Zm2.1 1.69-.89-.45-.1.21v.24h1Zm2.31-2.1.64.78.03-.03.03-.03-.7-.71Zm.6.5.83-.55-.05-.08-.07-.07-.7.7Zm.2 1 .9.45.03-.06.02-.07-.95-.32Zm-.2.8-.55.83.76.5.57-.7-.78-.63Zm1.4-2.1.71.72-1.15-1.6.45.89Zm-.7 0 .7-.7-.28-.3h-.42v1Zm-.6-.79-.55-.83-.08.05-.07.07.7.71Zm1-.7-.16-.98h-.04l-.04.01.25.98Zm1 2.5-.82-.57-.08.12-.04.12.95.32Zm0 .59-.3.95.68.23.43-.58-.8-.6Zm1.41-1.9h1v-3.01l-1.8 2.42.8.6Zm-11.43-8.05-.64-.77.64.77Zm-.5 4.78-.8.59v.02l.8-.61Zm5.11.7.58.81.04-.03.03-.03-.65-.76Zm.5-4.78.8-.6v-.01l-.02-.02-.78.63Zm-1.9-.1v1h.11l-.11-1Zm-1.3 4.18-.37-.93h-.01l.38.93Zm-1.5-1.7.91.4v-.02l-.92-.38Zm2.4-2.38v-1h-.2l-.17.07.37.93Zm-1.6-4.68.89.45.3-.58-.43-.5-.77.63Zm-1.41-1.7.77-.63-.5-.6-.72.34.45.9Zm-.1.6.83.56.03-.05.03-.05-.9-.45Zm-2.1.6-.98-.24-.4 1.62 1.61-.4-.24-.98Zm.8-1.79.44.9.08-.04.07-.06-.6-.8Zm.8-.1.9.45.3-.6-.45-.5-.75.65Zm-1.8-2.09.75-.65-.03-.03-.02-.03-.7.71Zm-.6-.4-.84-.55-.17.25v.3h1Zm-.1 1.1-.71-.71-.12.11-.07.15.9.45Zm-1.21 2.89-.64-.78-.03.03-.04.04.7.7Zm-2.61 1.39-.8-.6-.48.63.52.62.76-.65Zm1.6 1.89-.76.65.03.03.03.03.7-.71Zm.5.6.32-.95-.15-.05h-.16v1Zm.1-.7.71.7.17-.16.07-.22-.94-.32Zm2.31-1.9.14 1h.04l.04-.01-.22-.98Zm27.28 6.28.97-.25-.03-.1-.05-.1-.89.45Zm.1 1.29-.97-.24-.01.03v.04l.98.17Zm-3.51-.2-.77-.64-.63.76.75.64.65-.76Zm1.9-.8.45-.9-.06-.02-.07-.02-.31.95Zm.2-.2.71-.7-.07-.07-.08-.06-.55.84Zm-2.1-1.19-.7-.7.7.7Zm.1 1-.9-.45-.02.06-.03.07.95.32Zm-.6.8-.62.78.84.67.6-.9-.82-.56Zm-.7-1.5-.7-.7-.07.05-.04.07.8.58Zm1.4-.9.16 1 .04-.01.04-.01-.24-.97Zm1.3-.1.97.25.21-.83-.78-.33-.4.92Zm-2.1-.99.39-.92-1.75-.74.38 1.86.98-.2Zm-2.7 3.48.7.71.03-.03.03-.03-.77-.65Zm0 .6-.32-.95-.07.02-.06.03.44.9Zm4.5 3.58-.94.32.02.07.03.06.9-.45Zm0 .5-.7.7.7-.7Zm.2.1v1h.42l.29-.3-.7-.7Zm3.51-3.98.17.99 1.48-.25-.8-1.27-.85.53Zm-1.5-2.39.85-.53-.49-.77-.8.4.44.9Zm-4.01 5.27.6-.8h-.02l-.02-.02-.56.82Zm-4.01 1 .39.92.03-.01.02-.02-.44-.9Zm-.8-1 .82.56.02-.02.01-.02-.86-.52Zm2.4-.8-.7-.7-.3.3v.4h1Zm0-.2.7-.7-.06-.07-.09-.05-.55.83Zm-1.7-1.09.44-.9-1.24-.6-.2 1.36 1 .15Zm-1.3 1.6.76.64.01-.02-.78-.62Zm.1 3.68.49-.87-.05-.03-.06-.02-.39.92Zm2.2-.3.5.87.05-.03.05-.04-.6-.8Zm1.2-.8-.44-.9.44.9Zm1.3.8.97.28v-.04l-.96-.24Zm-1.6 1.5.24.96h.03l-.27-.97Zm-1.2-.1.44-.9-.06-.03-.07-.03-.31.95Zm-.8-.1-.9-.46-.39.78.72.5.57-.83Zm2.3 1.58-.56.83 1.24.86.3-1.49-.98-.2Zm.7-.99.6.8h.01l.02-.02-.63-.78Zm1.3-1.4-.74-.66-.01.02-.02.02.78.63Zm17.56-31.33v-1h-1v1h1Zm0 0h1v-2.6l-1.74 1.93.74.67Zm-.9 1-.74-.68-.02.02-.02.02.78.63Zm-.8.99.7.7.04-.03.03-.04-.78-.63Zm0 .5-.56.83.53.35.53-.33-.5-.86Zm3.3 5.47.37.93.46-.18.13-.48-.96-.27Zm-4.61-3.49h-1v.24l.1.21.9-.45Zm-.1-.6v1h.16l.15-.04-.31-.95Zm-.6.7-.7-.7-.03.02-.03.03.76.65Zm-.6.7-.76-.65-.5.57.43.64.83-.56Zm.6 0 .44-.9-.2-.1h-.24v1Zm1.5 1.1v1h3.33l-2.78-1.84-.55.83Zm-1.9.1v-1H90.49l.17 1Zm-.7-.6.44-.9-.7-.35-.51.6.76.65Zm-1.5 1.79.73.67.01-.01.02-.02-.77-.64Zm-.91 1-.74-.68-.26.29v.38h1Zm0 .1h-1v.4l.3.3.7-.7Zm4.81 3.38-.9.45.04.05.03.05.83-.55Zm.3.8-.44.89.7.34.5-.59-.76-.65Zm1.2-1.4-.7-.71-.03.03-.02.02.76.66Zm0-.1-.55.83.25.17h.3v-1Zm-.7.1-.31.95.15.05h.16v-1Zm-3.8-2.99-.04-1-2.5.1 1.87 1.65.66-.75Zm5.3-.2v-1h-.03l.04 1Zm.71.8.9.45.1-.21v-.24h-1Zm0 .5-.31.95.68.22.43-.57-.8-.6Zm.9-1.1.8.6.05-.07.05-.08-.9-.45Zm.1-.2v-1h-.61l-.28.55.9.45Zm.1-.2-.7-.7-.3.29v.42h1Zm.1-.1.7.72-.7-.71Zm1.1-1.39-.7.71.7-.7Zm-.8 0-.7.71.05.05.06.05.6-.8Zm-.9-1.39.9-.45-.03-.06-.04-.05-.83.56Zm.6-.7.45.9.03-.02.03-.02-.5-.86Zm2.31.2h1v-.1l-.02-.1-.98.2Zm-.1.5.9-.45-.08-.14-.12-.12-.7.71Zm.2.1.7.71.04-.04.04-.04-.78-.63Zm2.1-2.59.78.63.57-.7-.64-.64-.7.71Zm-.2-.2.71-.7-.7-.7-.7.7.7.7Zm-5.81-1.79-.9.45.08.15.11.11.7-.7Zm-.5 1.8.35-.94-2.73-1.02 1.53 2.48.85-.53Zm2.3.99.45.9 1.8-.9-1.8-.9-.45.9Zm-1.2.8-.85.52.66 1.07.9-.88-.7-.71Zm-7.72 5.87.14-1h-.05l-.1 1Zm-3 1.29-.75-.67-.02.02-.02.02.78.63Zm5.3 4.38.76.65.01-.01.01-.02-.77-.62Zm-.4-4.88.63-.78-.63.78Zm-1.6 1.5-.6.8.04.02.03.02.53-.85Zm1.5 2.68h-1v3.15l1.82-2.57-.82-.58Zm-.1.1.7.7-.7-.7Zm-2.9-.5.64-.76-.03-.03-.04-.02-.57.81Zm-1.2-2.68-.56-.84-.13.09-.1.12.78.63Zm-2.11 3.97-.09 1h.09v-1Zm-3.31 1.6-.77-.64-.02.02-.01.01.8.6Zm-1.9 2.29-.8-.6-.44.56.4.6.83-.56Zm4.9 3.58h-1v.16l.06.16.95-.32Zm.1.6.71-.72-.07-.07-.08-.05-.55.83Zm3.21-3.99.9.45.02-.05.02-.05-.94-.35Zm-.8-3.18.66-.75-1.36 1.46.7-.71Zm0 0-.6.8.08.06.08.04.44-.9Zm-3.3.7-.15.99h.14v-1Zm.3 0 .27-.97-.14-.03h-.14v1Zm2.1 3.58.7.7.03-.02.02-.02-.75-.66Zm-4.41-2.79.7.71.04-.04.04-.04-.78-.63ZM50.45 21.4c.16.21.24.32.28.42a.3.3 0 0 1 .03.2l1.97.33c.18-1.07-.41-1.8-.69-2.16l-1.6 1.2Zm.3.79c0-.12.03-.17 0-.08a3.9 3.9 0 0 1-.07.14l-.1.2c-.05.12-.17.4-.17.72a1.23 1.23 0 0 0 .7 1.1l.88-1.79c.09.05.21.14.3.29.1.15.12.3.12.4a.5.5 0 0 1-.02.14l.02-.04.07-.15a5.46 5.46 0 0 0 .2-.5c.03-.11.07-.26.07-.43h-2Zm1.56 1.83 1.5-1.79-1.53-1.28-1.5 1.79 1.53 1.28Zm.98-3.4c.18.04.28.13.24.1l-.08-.07a30.04 30.04 0 0 1-2.93-3.48l-.04-.07.02.06c.01.02.04.12.04.25h-2c0 .27.1.48.13.54l.15.28.4.58a30.9 30.9 0 0 0 2.9 3.33c.07.07.15.14.24.2.05.04.22.16.45.22l.48-1.94Zm-4.21-4.1-2.1 1.1.92 1.77 2.1-1.1-.92-1.77Zm-2.62 2.23a1.22 1.22 0 0 0 .94.9c.3.07.6.01.73-.02l.4-.1.1-.02v-2c-.23 0-.45.05-.58.08l-.33.09h-.04l.14.02c.09.01.23.06.36.18.13.13.2.27.22.38l-1.94.49Zm2.18.76c-.02 0 0-.02.15.07l.23.18.32.24 1.2-1.6c-.11-.08-.43-.34-.67-.5-.29-.18-.7-.4-1.23-.4v2Zm.67-1.08c-.55.44-1.54 1.3-2.36 1.98a34.64 34.64 0 0 1-1.44 1.13c-.04.02-.05.02-.03.02l.08-.03a.89.89 0 0 1 .27-.05v2c.27 0 .48-.1.52-.12.09-.04.17-.1.24-.14.13-.09.3-.2.46-.33.33-.25.75-.59 1.17-.94.89-.73 1.8-1.52 2.35-1.97l-1.26-1.55Zm-3.48 3.05c.13 0 .23.03.25.04.03 0 .05.02.05.02l-.05-.03c-.06-.02-.2-.09-.35-.13-.1-.03-.44-.14-.81-.02-.23.08-.46.24-.62.49-.14.23-.17.47-.17.63h2a.8.8 0 0 1-.12.41c-.12.2-.3.32-.48.38a.76.76 0 0 1-.38.02h.01l.03.02.08.03.14.06.12.04c.04.01.15.04.3.04v-2Zm-1.7 1c0 .26.09.45.13.54l.17.26a3.42 3.42 0 0 0 .58.6l.1.09.02.02 1.4-1.42-.09-.09-.1-.08a6.23 6.23 0 0 1-.32-.33l.03.05.04.11c.02.06.04.14.04.25h-2Zm.93 1.44 1.4 1.7L48 24.32l-1.4-1.69-1.54 1.28Zm2.62 1.95c.26-.13.6-.4.69-.86.08-.37-.05-.68-.07-.74-.06-.15-.03-.09-.02-.04.02.11.01.32-.12.5l-1.66-1.11a1.28 1.28 0 0 0-.2.95 1.66 1.66 0 0 0 .1.35l.02.04-.01-.06a.82.82 0 0 1 .2-.68c.07-.09.15-.13.18-.14l.89 1.79Zm.55-1.24c-.05.1-.11.16-.11.16l-.02.02.08-.07.36-.32 1.17-.98c.85-.71 1.85-1.55 2.24-1.94l-1.4-1.42c-.32.31-1.23 1.07-2.13 1.82a128.17 128.17 0 0 0-1.75 1.52l-.08.09c-.02.02-.1.1-.15.22l1.79.9Zm-.08-7.36c-.35.11-.68-.13-.47 0 .04.01.35.2.77.15.45-.07.7-.38.82-.55l-1.66-1.11a.66.66 0 0 1 .13-.15.87.87 0 0 1 .92-.1v.01l-.01-.01a1.93 1.93 0 0 0-.3-.14 1.3 1.3 0 0 0-.83 0l.63 1.9Zm1.05-1.6-1.6-1.9-1.53 1.3 1.6 1.9 1.53-1.3Zm-1.54-1.8c-.07-.1-.15-.22-.26-.33a1.46 1.46 0 0 0-.54-.39 1.1 1.1 0 0 0-1.33.46c-.19.3-.2.64-.2.82h2v-.01a.7.7 0 0 1-.1.23.9.9 0 0 1-1.07.38c-.18-.07-.26-.17-.22-.13l.06.08 1.66-1.11Zm-2.3.8a.91.91 0 0 1 .06-.61l-.01.01-.36.38a61.45 61.45 0 0 1-3.43 2.89c-.07.05-.02 0 .05-.03l.9 1.8.22-.15a8.98 8.98 0 0 0 .7-.55 63.74 63.74 0 0 0 2.95-2.52c.2-.2.39-.39.53-.56.06-.09.15-.2.21-.32.04-.07.08-.16.11-.28.03-.1.07-.3.01-.55l-1.94.5Zm-3.55 2.59c.16-.06.3-.03.36-.02.02 0 .03.01 0 0l-.13-.04a1.22 1.22 0 0 0-.83 0 1.3 1.3 0 0 0-.69.66l1.79.9-.08.11a.8.8 0 0 1-.3.2.78.78 0 0 1-.51.02l.04.02.2.06c.18.05.46.1.77-.01l-.62-1.9Zm-1.16 1.69.7.84.7.85 1.54-1.29-.7-.83-.7-.86-1.54 1.29Zm1.47 1.76.15.19c.08.1.2.25.35.4l1.4-1.42a1.72 1.72 0 0 1-.15-.19c-.07-.1-.19-.25-.34-.4l-1.41 1.42Zm.5.6c.06.06.27.26.6.31a1.04 1.04 0 0 0 1.03-.45c.14-.2.17-.39.18-.46.02-.1.02-.18.02-.24a2.6 2.6 0 0 0-.03-.4v-.02l-.01-.01-.99.16-.98.16a1.5 1.5 0 0 1 0 .09v.02-.02l.01-.05.03-.11a.96.96 0 0 1 1.55-.4l-1.41 1.41Zm1.75-1.43a.7.7 0 0 1 0 .45c-.04.09-.07.12-.06.1a2.92 2.92 0 0 1 .27-.2l-1.1-1.66c-.16.1-.43.28-.64.52-.19.2-.6.73-.36 1.43l1.9-.64Zm.36.23a34.19 34.19 0 0 1 3.4-2.84l.03-.02-.08.03a.87.87 0 0 1-.24.04v-2c-.25 0-.44.08-.49.1l-.23.13a24.29 24.29 0 0 0-1.56 1.16c-.8.66-1.7 1.45-2.24 1.98l1.4 1.42Zm-2.87-5.36c-.36.1-.73.08-1-.04a.75.75 0 0 1-.48-.53l-1.94.5c.24.93.88 1.56 1.64 1.87.73.31 1.56.34 2.3.13l-.52-1.93Zm-1.5-.64c-.1-.29-.07-.61.11-.97.18-.37.5-.73.86-1l-1.23-1.59a5 5 0 0 0-1.42 1.7c-.35.71-.52 1.59-.22 2.5l1.9-.64Zm.97-1.98c.24-.18.55-.26.8-.22.23.03.4.14.48.35l1.82-.84c-.4-.9-1.2-1.37-2.02-1.5a3.1 3.1 0 0 0-2.3.63l1.22 1.58Zm1.27.08c.06.15.05.45-.1.85l1.85.75c.24-.6.44-1.5.1-2.34l-1.85.74Zm-.12.9-.05.1c-.03.06-.11.22-.16.4-.05.18-.1.5.05.85.16.35.43.55.66.66l.89-1.79c.02.01.19.1.29.33.1.23.05.42.04.47-.01.04-.02.05.02-.03.03-.06.1-.2.15-.35l-1.9-.64Zm1.7 1.77c.32-.37.6-.73.88-1.08.28-.35.54-.68.82-1l-1.5-1.32c-.33.37-.61.74-.89 1.08l-.82 1.01 1.51 1.31Zm1.44-3.61c-.18-.1-.33-.26-.52-.5l-.31-.44a7.78 7.78 0 0 0-.4-.53l-1.53 1.29.3.4.34.48c.26.35.61.74 1.13 1.04l1-1.74Zm-1.24-1.48c-.6-.7-1.53-1.69-2.96-1.83l-.2 1.99c.57.06 1.05.45 1.65 1.15l1.51-1.3Zm-2.9-1.82a4 4 0 0 0-3.4 1.21 5.28 5.28 0 0 0-1.57 3.04l1.99.23c.07-.59.42-1.3.97-1.83.54-.53 1.15-.76 1.7-.68l.3-1.97Zm-4.97 4.26a4.62 4.62 0 0 0 1 3.3l1.6-1.21a2.63 2.63 0 0 1-.61-1.87l-1.99-.22Zm1.03 3.34c.3.34.66.68.9.92.28.28.48.5.6.72l1.74-1a5.5 5.5 0 0 0-.93-1.14c-.33-.33-.56-.54-.78-.79l-1.53 1.29Zm1.93 2.04c.22.11.43.11.51.11a2.88 2.88 0 0 0 .62-.13c.23-.07.49-.18.72-.28l.68-.3.24-.1.1-.04-.63-1.9c-.14.04-.35.14-.52.21l-.66.3-.57.22-.1.03h.02a.6.6 0 0 1 .07 0c.04 0 .2-.01.4.09l-.88 1.79Zm2.55-.7c.09 0 .34 0 .6-.14a1.05 1.05 0 0 0 .48-1.24c-.01-.03.02.07.02.19h-2c0 .17.04.32.05.33 0 .03 0 0 0 0a.95.95 0 0 1 .86-1.12v1.99Zm-.27-2.12-.14.06h-.02l-.03.01-.02.01h-.01s1.3.57.74 1.87h.01v-.01c.01 0 0 0 0 0h.02l.01-.01h.02l.03-.02.03-.01.03-.01c.03-.02-.02 0 .01 0l.02-.01c.02-.02-.03 0 0 0l.02-.01h.01c0-.01 0 0 0 0v-.01c.01 0 0 0 0 0l-.36-.93-.37-.93h-.02l-.05.03-.06.02-.06.02-.03.02c-.56 1.3.74 1.86.74 1.86l.03-.02h.03v-.01h.01l.07-.03.08-.03-.74-1.86Zm26.52 23.6a4.75 4.75 0 0 1-.55-.55c-.27-.3-.57-.65-.87-1.02-.62-.75-1.16-1.45-1.39-1.73l-1.56 1.25 1.4 1.75c.31.38.64.77.94 1.1.28.3.6.63.87.83l1.16-1.64Zm-2.76-3.23-.2-.3-1.66 1.12.2.3 1.66-1.12Zm-1.47-.64-.2.1.89 1.8.2-.1-.9-1.8Zm-.46.29c-.35.34-.33.76-.32.88 0 .14.04.29.05.3v.02c0-.05 0-.18.08-.35l1.79.9c.13-.26.14-.5.13-.66 0-.15-.04-.29-.05-.34l-.01-.06v.06a.9.9 0 0 1-.27.67l-1.4-1.42Zm-.14.77-.05.06a31.11 31.11 0 0 1-1.8 1.61l-1.21.96-.43.34-.28.24 1.4 1.42.13-.1.41-.33a33.14 33.14 0 0 0 2.55-2.1c.36-.31.76-.7.97-1.03l-1.7-1.07Zm-3.51 3.02c.09-.04.19-.02-.06-.04-.08 0-.3-.02-.55.03-.3.07-.58.25-.78.55l1.66 1.11a.7.7 0 0 1-.42.3h-.1.04c.05.01.23.03.4.02.2-.01.44-.05.7-.18l-.9-1.79Zm-1.33 1.74.49.6a69.66 69.66 0 0 0 1.23 1.46 3.69 3.69 0 0 0 .49.42c.04.03.26.16.56.16v-2c.28 0 .47.13.47.13l.06.04a69.16 69.16 0 0 1-1.26-1.47l-.5-.63-1.54 1.29Zm2.77 2.64a1.13 1.13 0 0 0 1.04-.64c.15-.3.13-.6.12-.7-.01-.15-.04-.28-.06-.34v-.06c-.02-.04 0 .04 0 .15h-2c0 .13.03.24.03.26l.03.1.01.06v-.08c0-.05.02-.15.08-.26a.87.87 0 0 1 .75-.49v2Zm1-1.14a.82.82 0 0 1-.09.13l.03-.02a55.22 55.22 0 0 1 2.11-1.88l-1.28-1.54a56.54 56.54 0 0 0-2.3 2.05 2.6 2.6 0 0 0-.1.12c-.03.03-.1.12-.16.24l1.79.9ZM64.49 40a.88.88 0 0 1-.95.17.73.73 0 0 1-.2-.13l-.04-.02c.03.02.04.05.11.15.05.07.15.2.27.33l1.4-1.42c.03.02.02.02-.03-.06l-.19-.26c-.06-.07-.24-.3-.53-.42a1.12 1.12 0 0 0-1.25.24l1.4 1.42Zm-.94.34a.47.47 0 0 1 .07.15v.03l.02-.06 1.9.64a2.2 2.2 0 0 0-.33-1.87l-1.66 1.11Zm.14 0c.01-.04.02-.05-.05.05-.04.07-.13.2-.2.34-.07.13-.18.39-.17.71.02.4.23.75.56.97l1.1-1.67a.8.8 0 0 1 .34.6.67.67 0 0 1-.04.29l.01-.03.05-.07.08-.12c.02-.04.07-.1.1-.18l-1.78-.9Zm1.47 1.86a58.96 58.96 0 0 1 1.61-1.88l.02-.02-1.4-1.42c-.25.24-1.39 1.58-1.79 2.07l1.56 1.25Zm1.63-1.9a1.23 1.23 0 0 0 .23-.32 1.05 1.05 0 0 0 .1-.6 1.02 1.02 0 0 0-.63-.8 1.1 1.1 0 0 0-.44-.09l-.19.02h-.1.02a.83.83 0 0 1 .28.04.98.98 0 0 1 .65.62 1 1 0 0 1-.22 1.03l-1.4-1.42a1.07 1.07 0 0 0-.28.45 1 1 0 0 0 1.05 1.29l.15-.02h.07-.02l-.1-.01a.97.97 0 0 1-.59-1.61l1.42 1.42Zm-1.45-1.7a.4.4 0 0 1-.04.01h.04c.03 0 .1-.01.19.01.1.03.18.08.26.16l-1.41 1.42c.37.37.83.43 1.15.4.3-.04.56-.15.7-.22l-.89-1.79Zm-.26-.11a.96.96 0 0 1 .54.17c.03.01.03.02.01 0a1.91 1.91 0 0 1-.21-.25l-.02-.04.01.03.04.11a.96.96 0 0 1-.26.89L63.78 38c-.42.42-.3.94-.28 1.01.04.16.1.28.15.35a3 3 0 0 0 .59.76 1.96 1.96 0 0 0 .36.27c.05.02.23.12.48.12v-2Zm-.05 1.04.34-.26.22-.2.14-.1-.49-1.95c-.43.11-.75.36-.94.52-.26.22-.28.26-.37.32l1.1 1.67Zm.62-.55a.49.49 0 0 1-.36-.07c-.02-.01.02.01.08.11a2.19 2.19 0 0 1 .25.61l1.94-.49a4.53 4.53 0 0 0-.48-1.15 2.4 2.4 0 0 0-.57-.67c-.28-.21-.7-.4-1.19-.31l.33 1.97Zm-.03.65c.03.13.04.22.03.28v.01l1.67 1.12c.43-.65.37-1.39.24-1.9l-1.94.5Zm-.08.53-.05.11c-.02.04-.08.19-.12.34a1.16 1.16 0 0 0 .8 1.42l.63-1.9c.03 0 .25.08.4.35.18.29.12.55.1.62 0 .05-.02.09.01 0l.13-.3-1.9-.64Zm1.75 1.52 1.4-1.9-1.6-1.19-1.4 1.9 1.6 1.19Zm-.4-2.5c0-.12.04-.37.24-.6.2-.24.49-.32.7-.32a.8.8 0 0 1 .57.22l-1.41 1.42c.13.13.42.36.84.36a1.06 1.06 0 0 0 1.06-1.07h-2Zm.8-1a1.09 1.09 0 0 0-.53.15 1 1 0 0 0-.11 1.67 1.1 1.1 0 0 0 .47.22c.06 0 .19.03.34 0a1 1 0 0 0 .7-1.54c-.06-.1-.13-.17-.16-.2l-1.41 1.42-.12-.15a1 1 0 0 1 1.26-1.42.9.9 0 0 1 .29.22.98.98 0 0 1 .2.95 1 1 0 0 1-.93.69v-2Zm-9.22-8.85c-1 0-1.91.42-2.65 1.03l1.28 1.54a2.2 2.2 0 0 1 1.37-.57v-2Zm-2.66 1.04a4.52 4.52 0 0 0-.66 6.13l1.61-1.19a2.52 2.52 0 0 1 .35-3.42l-1.3-1.52Zm-.64 6.15c1.66 2.15 4.38 2.37 6.48.9L60.5 35.8c-1.31.92-2.8.74-3.75-.48l-1.58 1.22Zm6.55.84a4.52 4.52 0 0 0 .66-6.13l-1.61 1.2c.8 1.08.64 2.57-.34 3.41l1.3 1.52Zm.63-6.16a5.05 5.05 0 0 0-3.88-1.87v2c.82 0 1.73.38 2.33 1.12l1.55-1.25Zm-2.57 1.52h.06l.03.03c.01.03.07.16-.03.4l1.86.74c.3-.75.26-1.57-.15-2.21a2.06 2.06 0 0 0-1.99-.95l.22 2Zm.06.42A3.7 3.7 0 0 1 58 35l.73 1.86a5.67 5.67 0 0 0 2.97-2.95l-1.86-.75ZM57.98 35c-.15.07-.24.06-.25.05-.02 0 0 0 0 .01.02.03-.1-.1.05-.44l-1.84-.77c-.36.85-.32 1.82.28 2.52.63.73 1.62.86 2.53.48l-.77-1.85Zm-.2-.4a3.7 3.7 0 0 1 1.86-1.82l-.74-1.86a5.67 5.67 0 0 0-2.97 2.94l1.86.75Zm1.49-1.75a1.23 1.23 0 0 0 .5-.1l.03-.02s-.05.02-.13.02v-2c-.28 0-.5.07-.6.12l-.06.02c-.01 0 0 0 0 0 .02 0 .12-.04.26-.04v2Zm-2.4-4.68c-.14 0-.22-.04-.17-.02l.08.04.18.07c.13.05.45.15.83.04.41-.13.64-.43.77-.68l-1.79-.9a.77.77 0 0 1 .87-.34l-.03-.01-.14-.06c-.1-.05-.33-.14-.6-.14v2Zm1.56-1.64-1.4-1.69-1.54 1.28 1.4 1.69 1.54-1.28Zm-2.62-1.95c-.19.1-.5.3-.65.67-.16.4-.05.75 0 .88l.06.14c.02.03 0 .01 0-.02a.82.82 0 0 1 .05-.62l1.78.9a1.15 1.15 0 0 0 .06-.93l-.07-.17c-.02-.04-.01-.02 0 0 0 .02.03.09.03.19a.84.84 0 0 1-.26.68.51.51 0 0 1-.1.08l-.9-1.8Zm-.48.94a.75.75 0 0 1 .2-.2l-.06.02a19.17 19.17 0 0 1-1.13.26l-.53.1.48 1.94.42-.08.69-.13a6.43 6.43 0 0 0 1.12-.37c.1-.06.31-.2.47-.43l-1.66-1.11Zm-.3 1.4a8.03 8.03 0 0 1 .5-1.3l.05-.06-.05.05c-.02.03-.1.1-.23.17l-.89-1.8c-.26.14-.41.35-.45.4l-.18.3a9.55 9.55 0 0 0-.7 1.76l1.94.48Zm.42-1.24a.64.64 0 0 1-.43.11c-.13-.01-.22-.07-.13-.02l.2.08a1.13 1.13 0 0 0 1.16-.21c.15-.14.24-.3.3-.4l-1.79-.9c.01-.02.06-.11.16-.2a.87.87 0 0 1 .84-.17c.04.01.06.03.02 0-.03 0-.1-.05-.19-.08s-.22-.07-.37-.09a1.32 1.32 0 0 0-.96.28l1.2 1.6Zm.96-1.55-1.8-2.09-1.51 1.3 1.8 2.1 1.51-1.31Zm-1.85-2.15-.05-.06-.21-.28c-.07-.07-.32-.36-.75-.42-.6-.1-.97.28-1.13.52l1.66 1.11a.77.77 0 0 1-.25.23.89.89 0 0 1-.94-.03l-.08-.07.02.02.06.09c.04.06.14.2.26.31l1.4-1.42Zm-1.3.32h-1v.03a9.87 9.87 0 0 1-.04.72v.01s0-.05.03-.1a.91.91 0 0 1 .2-.28l1.4 1.42a1.09 1.09 0 0 0 .3-.53c.03-.1.04-.2.05-.26a5.72 5.72 0 0 0 .05-.96v-.05h-1Zm-1 .64c-.06.12-.1.27-.12.32l-.1.31c-.07.24-.15.54-.25.83-.1.3-.2.59-.32.81-.12.26-.19.32-.16.3l1.27 1.54c.33-.28.55-.68.7-.98.16-.33.3-.7.4-1.03.12-.34.21-.66.28-.9l.1-.3c.02-.1.02-.07-.02 0l-1.78-.9Zm-1.02 2.63a13.16 13.16 0 0 1-1.46 1.16c-.05.03-.02.01.05-.01l.63 1.9c.14-.05.27-.13.35-.17l.27-.18a12.7 12.7 0 0 0 1.57-1.28l-1.4-1.42Zm-1.41 1.15a.71.71 0 0 1 .47 0c.03.02.04.02.01 0l-.12-.06a1.3 1.3 0 0 0-.8-.13c-.42.07-.69.32-.85.54l1.6 1.2a.68.68 0 0 1-.43.23.77.77 0 0 1-.41-.05 3.3 3.3 0 0 1 .06.04l.2.1c.1.03.22.07.38.09.16.01.34 0 .52-.06l-.63-1.9Zm-1.25 1.6 1.6 1.89 1.53-1.3-1.6-1.89-1.53 1.3Zm1.66 1.95c-.04-.05-.06-.07 0 .01l.15.2a3.28 3.28 0 0 0 .4.45l.2.12c.1.04.25.1.46.1v-2a.95.95 0 0 1 .61.24l.02.01a1.6 1.6 0 0 1-.15-.19l-.07-.1a3.95 3.95 0 0 0-.21-.26l-1.41 1.42Zm.9.83a1.08 1.08 0 0 0 1.4-.72c.05-.17.05-.33.04-.4l-.02-.24-.02-.16-.02-.08v.1s0 .31-.27.57l-1.4-1.42a1.06 1.06 0 0 0-.32.7 1.55 1.55 0 0 0 .03.47l.02.1v.02s0-.1.04-.22a.92.92 0 0 1 1.14-.61l-.63 1.9Zm1.35-1.32c-.04.13-.1.18-.04.12l.14-.18a7.31 7.31 0 0 1 1.17-1.02c.22-.15.29-.15.23-.14l-.28-1.98c-.4.06-.79.28-1.05.45a7.66 7.66 0 0 0-1.82 1.67c-.05.07-.17.24-.24.44l1.9.64Zm1.58-1.23c.99-.22 1.9-.46 2.7-.38l.19-2c-1.2-.11-2.5.24-3.32.42l.43 1.96Zm2.8-.38h.04v-2H56.8v2h.05v-2h-.05v2H56.92v-2h-.04v2Zm23.29 5.91c.1.42.13.68.1.8l1.94.5c.17-.68 0-1.41-.1-1.79l-1.94.5Zm.08.88a2.13 2.13 0 0 1-.27.72c-.07.1-.09.08-.02.05a.42.42 0 0 1 .32 0l-.89 1.79c.47.23.97.23 1.41.03.39-.18.66-.49.83-.74.34-.5.53-1.11.6-1.51l-1.98-.34Zm.03.77a4.11 4.11 0 0 1-.87-.63l-.49-.44-.54-.5-1.3 1.53.48.43.52.48c.37.32.8.66 1.31.92l.9-1.8Zm-1.78-.16c.25-.3.4-.43.5-.5a.24.24 0 0 1 .1-.02c.04 0 .1 0 .22.03l.63-1.9a2.32 2.32 0 0 0-1.9.14c-.48.26-.84.67-1.09.97l1.54 1.28Zm.7-.54c.16.08.34.14.54.14.18.01.47-.02.74-.22.33-.24.5-.65.42-1.06a1.25 1.25 0 0 0-.36-.66l-1.4 1.42c-.03-.02-.16-.16-.2-.41a.92.92 0 0 1 .35-.9.84.84 0 0 1 .53-.17c.1 0 .2.04.26.07l-.89 1.8Zm1.19-1.93a37.66 37.66 0 0 0-1.87-1.13c-.1-.05-.22-.11-.34-.15a1.36 1.36 0 0 0-.27-.07 1.02 1.02 0 0 0-.88.29l1.4 1.41a.98.98 0 0 1-.8.28.76.76 0 0 1-.1-.02l-.04-.01s.03 0 .11.05c.15.07.36.2.6.33l1.08.69 1.1-1.67Zm-3.36-1.07a1.16 1.16 0 0 0-.32 1.11l.09.27.06.15c.1.21-.06 0 .08-.27l1.78.9c.17-.33.18-.65.14-.9-.04-.24-.12-.43-.16-.52l-.05-.1.02.04c0 .05.03.16 0 .3a.84.84 0 0 1-.24.44l-1.4-1.42Zm-.15 1.39c.02-.06.05-.07-.05.04l-.08.09a7.38 7.38 0 0 0-.35.43l1.66 1.11.25-.28c.12-.14.35-.4.47-.75l-1.9-.64Zm.97.33-.21-.16a6.82 6.82 0 0 1-.34-.29s.05.06.05.19-.05.18-.01.14l-1.62-1.17c-.22.3-.37.66-.37 1.07.01.41.18.74.35.97a2.9 2.9 0 0 0 .73.68l.18.14 1.24-1.57Zm-.62 0c.44-.43.62-.58.86-.62l-.32-1.97c-.97.16-1.58.8-1.95 1.17l1.41 1.42Zm.94-.63c-.1.02-.12 0 0 .02l.16.02.23.04c.13.02.4.05.7 0 .15-.04.36-.11.55-.28.2-.17.34-.4.4-.63l-1.95-.49a.79.79 0 0 1 .58-.56c.06-.02.1-.01.08-.01l-.08-.01-.18-.03a6.16 6.16 0 0 0-.55-.06c-.11 0-.26 0-.42.04l.48 1.95Zm1.46-2c-.32-.13-.65-.3-1-.47-.35-.17-.73-.36-1.11-.52l-.78 1.84 1 .47c.34.18.72.36 1.1.53l.79-1.84Zm-3.48.13a.75.75 0 0 1 0-.33c.01-.04.02-.05 0-.03-.01.04-.06.13-.15.26-.18.26-.45.6-.76.96l-.91 1.03-.67.75 1.53 1.29c.1-.13.32-.37.62-.7.29-.32.63-.7.95-1.08.32-.37.64-.76.88-1.11.12-.17.24-.36.32-.54.05-.1.1-.2.13-.34.03-.11.07-.32.02-.56l-1.96.4ZM73.7 33.8l-.29.3a2.55 2.55 0 0 0-.3.44c-.03.06-.11.24-.11.47h2a.93.93 0 0 1-.13.46l.04-.05.2-.2-1.41-1.42Zm-.7 1.21a1.15 1.15 0 0 0 1.32 1.15 1.63 1.63 0 0 0 .52-.15 163.04 163.04 0 0 0-.88-1.8h.01a.23.23 0 0 1 .04-.02l.07-.01h.17a.88.88 0 0 1 .67.5.8.8 0 0 1 .08.33h-2Zm1.71 1.05c-.24.08-.43.04-.48.03a.66.66 0 0 1-.11-.04c-.02 0 0 0 .05.03l.47.32a34.5 34.5 0 0 1 2.9 2.34 12.23 12.23 0 0 1 .55.52l-.01-.03s-.07-.09-.11-.22l1.9-.64a1.14 1.14 0 0 0-.27-.42 14.22 14.22 0 0 0-.73-.7 46.35 46.35 0 0 0-3.07-2.48 8.85 8.85 0 0 0-.92-.56 1.34 1.34 0 0 0-.23-.08c-.08-.01-.3-.06-.56.03l.62 1.9Zm3.31 3.08c-.14-.28-.04-.54-.07-.44l-.02.1-.04.21c0 .1-.01.24.04.4.05.18.14.35.28.49l1.4-1.42a.9.9 0 0 1 .27.7c0 .06-.01.1-.02.1 0 .01 0 .01 0 0l.01-.03.04-.12.03-.23c.01-.18-.01-.42-.13-.66l-1.79.9Zm.9.05-.71.7v.01a.4.4 0 0 1 .03.03 1.3 1.3 0 0 0 .18.14c.1.06.35.22.7.22v-2a.8.8 0 0 1 .4.11.53.53 0 0 1 .08.06l.01.01-.7.72Zm.9.8c.09-.08.2-.22.29-.33l.38-.49 1.04-1.32a23.22 23.22 0 0 1 1.42-1.59l.06-.04-.05.03a.73.73 0 0 1-.17.05l-.33-1.98c-.22.04-.4.13-.5.2l-.29.2a25.11 25.11 0 0 0-1.7 1.87l-1.05 1.35-.37.47-.14.17 1.4 1.42Zm3.65-5.21-.75-1.2-.75-1.2-1.7 1.07.76 1.2.75 1.2 1.69-1.07Zm-2.8-2.75c-.3.15-.56.41-.68.76-.1.32-.08.6-.04.79.08.34.27.67.28.69l1.78-.9-.08-.17-.02-.04s.03.12-.03.28a.69.69 0 0 1-.32.38l-.88-1.8Zm-3 5.34a2.67 2.67 0 0 0-1.77-.42c-.55.05-1.08.22-1.53.41-.45.2-.86.42-1.17.6l-.39.24-.12.07-.04.02.9 1.8.3-.18.37-.22c.27-.17.6-.34.94-.49.34-.14.65-.24.92-.26.25-.02.38.03.46.08l1.13-1.65Zm-4.96.9s.05-.02.14 0a.4.4 0 0 1 .22.15c.13.15.07.3.05.33l-1.66-1.11a1.7 1.7 0 0 0 .03 2c.47.6 1.27.78 2 .47l-.78-1.84Zm.44.44c.1-.15.34-.31.65-.31v-2c-.9 0-1.85.44-2.36 1.28l1.71 1.03Zm.65-.31h.14a3.15 3.15 0 0 0 .71.03c.06 0 .2 0 .35-.06.07-.02.22-.08.37-.22.17-.15.33-.41.33-.75h-2a.98.98 0 0 1 .64-.92.79.79 0 0 1 .14-.03h.04l-.13-.01-.28-.02-.31-.02v2Zm1.6-.3c.01 0 .08-.06.14-.13.05-.07.24-.3.24-.67 0-.37-.2-.6-.24-.67l-.13-.14L74 37.92l-.02-.02c-.03-.04-.2-.25-.2-.6 0-.33.17-.55.2-.58l.02-.02 1.4 1.42Zm-.15-1.73c-.5-.34-1.13-.83-1.8-1.16l-.9 1.8c.53.25.9.56 1.6 1.02l1.1-1.66Zm-3.24-.4-.03.05-.2.23-.4.34c-.13.12-.31.29-.47.48l1.56 1.25.25-.24.42-.38c.3-.28.75-.75.85-1.45l-1.98-.29Zm-1.08 1.08c-.27.32-.56.7-.8 1.12-.23.41-.44.93-.44 1.52h2c0-.12.04-.3.19-.55.14-.25.34-.52.58-.8l-1.53-1.29ZM69.7 39.7c0 1.06.6 2.14 1.71 2.6l.78-1.83a.84.84 0 0 1-.49-.77h-2Zm1.61 2.56c1.22.7 2.49.1 3.2-.3l-1-1.74c-.3.18-.58.3-.8.34-.2.04-.32.01-.41-.04l-.99 1.74Zm3.3-.37c.42-.31.74-.55 1.05-.7l-.9-1.8c-.49.25-.96.61-1.35.9l1.2 1.6Zm1.05-.7.05-.01h.01a.33.33 0 0 1-.14-.16c-.05-.1-.03-.18-.03-.17l1.94.48c.1-.39.07-.8-.1-1.18a1.68 1.68 0 0 0-.78-.76 2.11 2.11 0 0 0-1.84 0l.89 1.8Zm-.1-.38c-.09.3-.48.68-.92.81l.54 1.92a3.4 3.4 0 0 0 2.3-2.17l-1.92-.56Zm-.89.8c-.24.06-.38.04-.52-.02l-.89 1.79c.67.33 1.33.31 1.9.17l-.49-1.94Zm-.65-.08c.05.02.06.03-.01-.01l-.33-.19c-.14-.06-.48-.19-.88-.08-.43.12-.67.44-.79.68l1.79.9a.73.73 0 0 1-.46.35c-.27.08-.48-.02-.48-.02-.01 0-.02-.01 0 0l.1.06c.07.05.24.15.43.21l.63-1.9Zm-1.68 1.68 2.3 1.59 1.14-1.65-2.3-1.59-1.14 1.65Zm3.85.96c.03-.14.06-.16.06-.16.02-.03.07-.08.26-.23l-1.2-1.6c-.2.15-.45.35-.66.62-.22.3-.34.62-.42.98l1.96.4Zm.35-.4c.6-.49 1.07-1.07 1.46-1.56l-1.56-1.25c-.41.51-.75.92-1.15 1.24l1.25 1.56Zm1.42-1.52c.55-.6.92-1.44.96-2.31.04-.91-.3-1.87-1.2-2.54l-1.2 1.6c.3.23.42.52.4.86-.01.36-.19.77-.45 1.06l1.5 1.33Zm15.8-32v.07h2v-.07h-2v.07h2v-.07h-2Zm.27-.67-.9 1 1.48 1.33.9-1-1.48-1.33Zm-.94 1.03-.8 1 1.55 1.26.8-1-1.55-1.26Zm-.73.92c-.04.04-.13.12-.2.21-.07.08-.22.29-.27.58-.06.35.06.66.21.87.14.18.3.3.41.38l1.1-1.67c-.03-.02.03 0 .1.1.1.14.2.37.15.65-.04.22-.14.35-.15.35l.06-.05-1.41-1.42Zm1.22 2.06c-.37.22-.71.1-.78.07l-.1-.05c.06.05.17.17.33.37a20.1 20.1 0 0 1 2.07 3.45 5.62 5.62 0 0 1 .28.74v-.05c0-.03 0-.1.03-.19l1.92.55c.08-.25.05-.48.03-.6a7.54 7.54 0 0 0-.44-1.28 22.09 22.09 0 0 0-2.31-3.85c-.2-.24-.4-.48-.6-.65-.1-.09-.25-.2-.44-.28-.17-.07-.59-.2-1.02.06l1.03 1.71ZM96 17.28a.86.86 0 0 1 .49-.05 4.2 4.2 0 0 1-.48-.29c-.41-.27-.93-.67-1.47-1.1a44.41 44.41 0 0 1-2-1.73c0-.02 0-.01 0 0l.03.03.08.13-1.78.9c.06.13.14.22.15.23a2.04 2.04 0 0 0 .26.27l.51.46c.4.36.95.82 1.5 1.26.54.44 1.12.89 1.6 1.21.24.16.49.32.7.42.12.05.25.11.4.15.11.03.42.1.75-.03L96 17.28Zm-3.24-2.56-.01.13.02-.07c.01-.07.04-.2.05-.34 0-.09.04-.42-.14-.75a1.09 1.09 0 0 0-.64-.53 1.15 1.15 0 0 0-.7.02l.63 1.9a.85.85 0 0 1-.5 0 .91.91 0 0 1-.55-.44.8.8 0 0 1-.1-.36v-.01a.68.68 0 0 1-.01.1l-.02.1c0 .02-.03.13-.03.25h2Zm-1.1-1.6a1.05 1.05 0 0 0-.67.25l-.19.17-.23.29-.19.24-.03.04 1.41 1.42a1.44 1.44 0 0 0 .13-.14l.09-.11.17-.23.12-.15-.04.04a.82.82 0 0 1-.29.15.97.97 0 0 1-.28.04v-2Zm-1.36 1.05-.6.7 1.51 1.3.6-.7-1.5-1.3Zm-.67 1.9c.1.15.3.4.65.53.39.12.7 0 .83-.05l.13-.06h.02a.52.52 0 0 1-.2.03v-2c-.25 0-.45.06-.59.12l-.13.07c-.04.02-.03 0-.01 0a.83.83 0 0 1 .96.25l-1.66 1.12Zm.98.35.14.1c.12.08.26.2.42.3.29.23.66.5.84.63l1.1-1.67-.74-.55a28.83 28.83 0 0 0-.87-.6l-.89 1.79Zm1.95-.8c-.29 0-.75.02-1.13.05l-.52.03-.19.01h-.06v2l.9-.05c.4-.02.79-.05 1-.05v-2Zm-2.07.1c-.06.02.12-.03.36.1a.78.78 0 0 1 .32.36v-.01l-.03-.07a1.43 1.43 0 0 0-.74-.88l-.89 1.8c-.25-.13-.35-.5-.22-.15.05.13.18.47.56.69.36.2.73.18.97.14l-.33-1.97Zm-1.3-.25-1.5 1.8 1.53 1.28 1.5-1.79-1.53-1.29Zm-1.48 1.77-.9 1 1.48 1.34.9-1-1.48-1.34Zm-.16 1.66h-1V19h2v-.09h-1Zm-.7.81a1.09 1.09 0 0 0 .61.38c.22.05.42.02.56-.03.12-.04.21-.09.23-.1h.01l.01-.01s-.01 0 0 0l-.63-1.9c-.15.05-.26.1-.34.15l-.06.03.04-.02a.95.95 0 0 1 .96.08l.06.05-.05-.05-1.4 1.42Zm1.41.24a.93.93 0 0 1-.47.03l-.12-.03c-.02 0 0 0 .05.03a35.84 35.84 0 0 1 1.9 1.39 57.94 57.94 0 0 1 1.97 1.65c.01.01 0 0 0 0l-.04-.05a.92.92 0 0 1-.08-.13l1.78-.9c-.06-.14-.15-.23-.16-.24a1.95 1.95 0 0 0-.26-.26l-.51-.44a60.44 60.44 0 0 0-3-2.36 8.57 8.57 0 0 0-.9-.54 1.33 1.33 0 0 0-.23-.08c-.08-.01-.3-.05-.55.03l.62 1.9Zm3.27 3c-.12-.18-.1-.46-.1-.13a1.39 1.39 0 0 0 .78 1.26l.9-1.8c.04.02.16.1.25.28.08.15.08.28.08.26v-.08a1.45 1.45 0 0 0-.25-.91l-1.66 1.11Zm1.89.89 1.2-1.4-1.51-1.3-1.2 1.39 1.5 1.3Zm1.15-1.34.1-.1.1-.14c.03-.05.17-.26.17-.56a1 1 0 0 0-.52-.88c-.17-.1-.34-.12-.37-.12l-.13-.01h-.05v2h-.07c-.02-.01-.18-.03-.35-.12a1 1 0 0 1-.5-.87c0-.3.13-.5.15-.53l.08-.1c0-.02.02-.03-.02 0l1.41 1.43Zm-.15-1.65c-.16-.1-.41-.23-.73-.23s-.56.13-.63.17l-.04.03a.4.4 0 0 1 .14-.03v2a1.6 1.6 0 0 0 .88-.25h-.02a.8.8 0 0 1-.34.08.7.7 0 0 1-.37-.1l1.1-1.67Zm-.94-.01.1.04a61 61 0 0 1-3.57-2.83l-1.32 1.5a62.66 62.66 0 0 0 3.89 3.06c.04.03.14.09.27.13l.63-1.9Zm-4.09-1.04 5.32-.2-.08-2-5.31.2.07 2Zm5.28-.2a.86.86 0 0 1-.37-.08l-.06-.03c.02 0 .05.04.1.1l.09.12-.01-.03a.83.83 0 0 1-.05-.28h2c0-.2-.06-.38-.1-.46-.03-.1-.08-.19-.12-.26a2.96 2.96 0 0 0-.67-.77 1.65 1.65 0 0 0-.27-.17 1.2 1.2 0 0 0-.54-.14v2Zm-.2-.65v.02l-.02.03-.03.04c-.03.05-.11.2-.16.37-.06.2-.1.56.12.92.2.33.5.46.68.52l.62-1.9c.03 0 .24.08.4.33.18.3.13.57.1.68-.03.1-.06.14-.03.1l.11-.2-1.78-.9Zm1.7 1.55.4-.5c.16-.17.33-.36.5-.6l-1.6-1.2c-.12.17-.25.32-.4.5l-.5.6 1.6 1.2Zm1-1.25.1-.2-1.79-.9-.1.2 1.79.9Zm-.8.35a1.09 1.09 0 0 0 1.1-1.05v-.14h-2c0 .03 0 .02 0 0l.04-.19a.9.9 0 0 1 .86-.62v2Zm.8-.48.1-.1-1.4-1.42-.1.1 1.4 1.42Zm.1-.1a14.53 14.53 0 0 0 1.15-1.33c.05-.07.12-.19.17-.31.03-.06.08-.19.09-.35.01-.14.01-.52-.3-.83l-1.4 1.42a.97.97 0 0 1-.23-1.02c.02-.05.04-.07 0-.03a12.6 12.6 0 0 1-.89 1.02l1.42 1.43Zm1.11-2.82c-.1-.1-.25-.21-.44-.29a1.17 1.17 0 0 0-1.02.07l-.16.1c-.07.04.05-.05.24-.07.24-.04.42.06.47.1l-1.2 1.6c.13.1.27.18.45.23.18.06.36.07.54.05.32-.04.56-.21.6-.24l.02-.01a.83.83 0 0 1-.67.03.7.7 0 0 1-.24-.15l1.41-1.42Zm-.8 0-.1-.13a11.03 11.03 0 0 1-.62-1l-1.78.9a12.66 12.66 0 0 0 1.09 1.65l1.4-1.42Zm-.78-1.24a.78.78 0 0 1 .07.74c-.06.14-.14.2-.11.17.05-.04.14-.1.26-.15l-.9-1.8c-.08.05-.38.2-.64.4-.12.1-.32.3-.44.58-.16.35-.16.79.1 1.18l1.66-1.12Zm.28.72c.05-.02.17-.08.35-.14.17-.06.34-.1.49-.1.16-.02.2.01.16 0a.34.34 0 0 1-.12-.1.3.3 0 0 1-.06-.12l1.96-.4a1.66 1.66 0 0 0-.93-1.2c-.4-.19-.84-.2-1.17-.18-.65.05-1.33.3-1.7.52l1.02 1.72Zm.8-.66c0-.1.03-.18.03-.19v.02l-.02.02c0 .01 0 .03-.02.04-.01.04-.08.2-.1.39-.02.1-.03.26.02.44s.15.35.29.49l1.4-1.42a.91.91 0 0 1 .26.75.7.7 0 0 1-.03.14c0 .01 0 .02 0 0l.01-.02.02-.04.05-.13c.04-.1.09-.28.09-.49h-2Zm.9.5-.9.45.01.01v.01a1.14 1.14 0 0 0 .07.1 1.13 1.13 0 0 0 .76.54c.38.07.73-.07.96-.3l-1.4-1.42a.93.93 0 0 1 .83-.24.87.87 0 0 1 .53.34.58.58 0 0 1 .02.04v.01h.01v.01l-.89.45Zm.98.73 2.1-2.59-1.55-1.26-2.1 2.59 1.55 1.26Zm2.03-3.93-.1-.1-.1-.1-1.4 1.42.1.1.1.1 1.4-1.42Zm-1.6-.2c.16-.16.33-.2.36-.2.04-.01.04 0 0 0-.1-.01-.28-.03-.52-.09-.5-.1-1.14-.3-1.8-.54a30.8 30.8 0 0 1-2.55-1.04c-.06-.03.01 0 .1.08l-1.42 1.42c.13.12.27.2.32.23l.26.14.7.32c.54.23 1.24.5 1.93.74.7.24 1.42.47 2.02.6.3.07.6.12.87.13.14 0 .3 0 .47-.03.16-.03.43-.1.66-.34l-1.4-1.42Zm-4.23-1.53c.04.09.05.14.03.04l-.06-.27c-.02-.1-.06-.28-.15-.47a1.14 1.14 0 0 0-1.01-.64v2a.9.9 0 0 1-.59-.22.78.78 0 0 1-.19-.24l-.02-.06v.05c.02.03.02.06.03.1l.03.16a2.64 2.64 0 0 0 .15.45l1.78-.9Zm-1.74 3.18c.77.29 1.44.57 2.21.96l.89-1.8c-.84-.41-1.57-.72-2.4-1.03l-.7 1.87Zm2.21-.84-.3.15-.3.15.89 1.8.3-.16.3-.14-.89-1.8Zm-.6.3c-.38.19-.7.53-.86.69l1.4 1.42.26-.25.09-.07-.9-1.79Zm.7.87-1.11-1.79-1.7 1.05 1.1 1.79 1.7-1.05Zm-8.5 5.4a4.65 4.65 0 0 0-3.83 1.62l1.49 1.34a2.66 2.66 0 0 1 2.17-.97l.18-2Zm-3.87 1.66a4.44 4.44 0 0 0 .56 6.29l1.24-1.57c-1-.8-1.14-2.34-.24-3.46l-1.56-1.26Zm.56 6.29a4.61 4.61 0 0 0 6.3-.63l-1.52-1.3a2.61 2.61 0 0 1-3.54.36l-1.24 1.57Zm6.31-.66a4.44 4.44 0 0 0-.55-6.28l-1.25 1.56c1.01.8 1.15 2.35.25 3.47l1.55 1.25Zm-.55-6.28a5.1 5.1 0 0 0-2.4-1l-.27 1.98c.54.07 1.07.3 1.42.58l1.25-1.56Zm-3.93 2.58c.1 0 .27.04.5.14.23.1.45.24.6.36l1.2-1.6a5.4 5.4 0 0 0-.96-.58 3.31 3.31 0 0 0-1.34-.32v2Zm1.17.54c.35.22.79.56 1.05.91.12.17.16.28.17.33v.02l1.63 1.16c.74-1.05.25-2.11-.2-2.71a6.07 6.07 0 0 0-1.6-1.4l-1.05 1.7Zm3.03 1.84c0 .14-.03.3-.12.44-.02.04-.12.23-.35.36a1 1 0 0 1-1.5-.86c0-.25.1-.42.1-.43l.06-.1.01-.02 1.4 1.42a1.9 1.9 0 0 0 .32-.41c.01-.03.1-.21.1-.46a1 1 0 0 0-1.87-.5c-.1.18-.15.37-.15.56h2Zm-1.8-.61c-.04.04-.15.12-.52.02-.37-.1-.77-.34-1.04-.57l-1.3 1.52c.44.37 1.1.78 1.8.98.71.2 1.7.23 2.47-.53l-1.41-1.42Zm-1.63-.6c-.3-.22-.69-.56-.9-.89a.72.72 0 0 1-.13-.3l.03-.06-1.56-1.25c-.36.45-.5.96-.46 1.47.03.48.23.9.44 1.23a5.63 5.63 0 0 0 1.43 1.43l1.15-1.63Zm-1.23-1.04c.15-.1.26-.13.46-.13v-2c-.6 0-1.1.16-1.56.46l1.1 1.67Zm-2.57 2.15c-1.6-.13-3.1.67-4.16 1.95l1.54 1.27c.74-.9 1.65-1.3 2.45-1.23l.17-2Zm-4.2 1.98c-.27.37-.57.72-.9 1.1-.32.36-.67.76-1 1.2l1.6 1.2c.28-.37.58-.71.9-1.1.33-.36.68-.76 1-1.19l-1.6-1.2ZM77.4 30.8a1.2 1.2 0 0 0 .87.55c.29.04.54-.04.59-.05.11-.03.07-.02.01-.02a.65.65 0 0 1-.39-.1l1.1-1.67a1.35 1.35 0 0 0-1.1-.18l-.15.04c-.03 0-.02 0 0 0 .03 0 .1-.02.2 0a.8.8 0 0 1 .53.32L77.4 30.8Zm1.08.38.2.15a51.04 51.04 0 0 1 1.88 1.53 57.89 57.89 0 0 1 1.72 1.48l.05.06-.01-.02a.75.75 0 0 1-.1-.19.97.97 0 0 1-.07-.36h2a1.03 1.03 0 0 0-.16-.56 2.92 2.92 0 0 0-.3-.36l-.48-.43a59.8 59.8 0 0 0-2.78-2.32c-.38-.3-.72-.57-.84-.65l-1.1 1.67Zm3.72 2.97c-.08-.22.03-.5-.04-.26a1.19 1.19 0 0 0 .53 1.37l1.1-1.67.1.08a.85.85 0 0 1 .21.61c0 .09-.02.15-.02.16l.02-.05a1.57 1.57 0 0 0 .06-.52c0-.12-.03-.24-.07-.36l-1.9.64Zm.34.98a1 1 0 0 0 1.13.2c.12-.05.2-.11.24-.14l.2-.18.39-.42a42.93 42.93 0 0 0 2.85-3.7l-1.79-.9-.03.06-.12.17-.37.51a51.59 51.59 0 0 1-2.35 2.87c-.03.03-.03.03 0 .01 0 0 .06-.05.17-.1a1 1 0 0 1 1.1.2l-1.42 1.42Zm4.85-4.34c.54-1.47.14-3.2-1.08-4.28l-1.32 1.5c.59.52.79 1.37.53 2.09l1.87.69Zm-2.44-2.82a1.39 1.39 0 0 0 .4.28c.02 0 .19.09.42.09a1 1 0 0 0 .82-1.58c-.1-.16-.24-.25-.25-.25l-.24-.15-.9 1.8c.04.01.01 0-.03-.03a.88.88 0 0 1-.22-.23 1 1 0 0 1-.1-.95 1 1 0 0 1 1.3-.54.8.8 0 0 1 .2.14l-1.4 1.42Zm1.3-1.51a4.7 4.7 0 0 0-2.8-1.1v2c.4 0 .89.17 1.6.7l1.2-1.6Zm-3.9 2.5H82.64v-2H82.33v2Zm.02-.04c.52.15 1.18.56 1.55 1.03.18.23.24.41.25.53 0 .08 0 .21-.17.4l1.5 1.32c.49-.56.71-1.2.67-1.87a3 3 0 0 0-.67-1.6 5.31 5.31 0 0 0-2.58-1.74l-.55 1.93Zm1.68 1.9-.13.13-.28.28 1.41 1.42.28-.28.12-.12-1.4-1.42Zm-.4.4a.96.96 0 0 1 .91-.24c.05.02.07.03.02 0a25.14 25.14 0 0 1-3.38-2.68l.03.05c.01.03.07.13.1.29.01.16.01.53-.29.82l-1.4-1.42c-.32.31-.33.7-.3.88.03.18.1.32.13.38a6.3 6.3 0 0 0 .7.8 26.56 26.56 0 0 0 3.47 2.65c.08.04.2.1.33.14a1.04 1.04 0 0 0 1.08-.25l-1.4-1.41Zm-2.53-1.84c.06-.08.23-.22.49-.32.25-.1.47-.13.6-.11l.27-1.98a3.21 3.21 0 0 0-1.63.24c-.48.2-.96.5-1.3.91l1.57 1.26Z" fill="#000" mask="url(#b)"/></svg>